<?xml version="1.0" standalone="no"?>
<!DOCTYPE svg PUBLIC "-//W3C//DTD SVG 1.1//EN" "http://www.w3.org/Graphics/SVG/1.1/DTD/svg11.dtd" >
<!--
2013-9-30: Created.
-->
<svg>
<metadata>
Created by iconfont
</metadata>
<defs>

<font id="iconfont" horiz-adv-x="1024" >
  <font-face
    font-family="iconfont"
    font-weight="500"
    font-stretch="normal"
    units-per-em="1024"
    ascent="896"
    descent="-128"
  />
    <missing-glyph />
    
    <glyph glyph-name="x" unicode="x" horiz-adv-x="1001"
d="M281 543q-27 -1 -53 -1h-83q-18 0 -36.5 -6t-32.5 -18.5t-23 -32t-9 -45.5v-76h912v41q0 16 -0.5 30t-0.5 18q0 13 -5 29t-17 29.5t-31.5 22.5t-49.5 9h-133v-97h-438v97zM955 310v-52q0 -23 0.5 -52t0.5 -58t-10.5 -47.5t-26 -30t-33 -16t-31.5 -4.5q-14 -1 -29.5 -0.5
t-29.5 0.5h-32l-45 128h-439l-44 -128h-29h-34q-20 0 -45 1q-25 0 -41 9.5t-25.5 23t-13.5 29.5t-4 30v167h911zM163 247q-12 0 -21 -8.5t-9 -21.5t9 -21.5t21 -8.5q13 0 22 8.5t9 21.5t-9 21.5t-22 8.5zM316 123q-8 -26 -14 -48q-5 -19 -10.5 -37t-7.5 -25t-3 -15t1 -14.5
t9.5 -10.5t21.5 -4h37h67h81h80h64h36q23 0 34 12t2 38q-5 13 -9.5 30.5t-9.5 34.5q-5 19 -11 39h-368zM336 498v228q0 11 2.5 23t10 21.5t20.5 15.5t34 6h188q31 0 51.5 -14.5t20.5 -52.5v-227h-327z" />
    

    
    <glyph glyph-name="caozuoyuan" unicode="&#58880;" d="M676 316.99199999999996q40.992 0 77.504-15.008t63.488-40.512 42.496-60.512 15.488-74.016l0-68.992q0-0.992-0.512-1.504t-0.512-1.504l0-76.992q0-14.016-10.496-24.512t-25.504-10.496l-676.992 0q-15.008 0-25.504 10.496t-10.496 24.512l0 148.992q0 39.008 15.488 74.016t42.496 60.512 63.008 40.512 76.992 15.008l352.992 0zM499.008 384q-52 0-97.504 19.488t-79.488 53.504-53.504 79.488-19.488 97.504 19.488 97.504 53.504 79.488 79.488 53.504 97.504 19.488 97.504-19.488 79.488-53.504 53.504-79.488 19.488-97.504-19.488-97.504-53.504-79.488-79.488-53.504-97.504-19.488z"  horiz-adv-x="1024" />

    
    <glyph glyph-name="rilijiantouyoushuang" unicode="&#58886;" d="M524.022306 353.23020599999995c0.61708 0.548492 1.224949 1.111311 1.816445 1.701758 16.320372 16.319687 16.320372 42.775222 0 59.09491L136.690793 803.157475c-16.320372 16.319687-42.777018 16.319687-59.09739 0-16.312185-16.319687-16.312185-42.767036 0-59.086723l359.606938-359.591845L81.287693 28.581197999999972c-18.350697-18.358113-20.005453-46.460148-3.693267-62.779835 16.320372-16.319687 44.431773-14.665001 62.78247 3.693112l381.768587 381.752564C522.793263 351.89479100000005 523.41546 352.55789400000003 524.022306 353.23020599999995zM943.666068 414.026874L554.51811 803.157475c-16.320372 16.319687-42.777018 16.319687-59.09739 0-16.312185-16.319687-16.312185-42.767036 0-59.086723l359.606938-359.591845L499.113988 28.581197999999972c-18.350697-18.358113-20.005453-46.460148-3.693267-62.779835 16.320372-16.319687 44.431773-14.665001 62.78247 3.693112l381.768587 381.752564c0.648803 0.647753 1.271 1.311879 1.876822 1.983167 0.61708 0.548492 1.224949 1.111311 1.816445 1.701758C959.986441 371.25165100000004 959.986441 397.707187 943.666068 414.026874z"  horiz-adv-x="1024" />

    
    <glyph glyph-name="yonghu" unicode="&#58896;" d="M919.802358-22.373310999999944c0 3.595898-1.119497 6.873548-1.99647 10.226922-19.107173 145.496745-113.674992 267.242554-243.898893 323.202053 75.544557 51.642171 125.187187 138.535193 125.187187 237.019205 0 158.520363-128.464837 286.986223-287.044552 286.986223-158.521386 0-287.025109-128.46586-287.025109-286.986223 0-98.565876 49.643654-185.377034 125.267005-237.101069-128.104633-55.07741-221.474161-173.946704-242.578828-316.400137-2.396583-5.198395-3.91517-10.872628-3.91517-16.946974l0.400113-3.759627c0-22.62223 18.304901-40.927131 40.928155-40.927131 22.582321 0 40.929178 18.304901 40.929178 40.927131l-0.039909 0.481977 0.99977 0c19.426445 158.677952 152.045905 282.105053 314.76387 287.143812 3.437286-0.081864 6.794753-0.480954 10.271948-0.480954 3.476171 0 6.874571 0.399089 10.310833 0.480954 162.737408-5.039783 295.358915-128.46586 314.783313-287.143812l1.199315 0 0-0.481977c0-22.62223 18.307971-40.927131 40.929178-40.927131 22.623253 0 40.929178 18.304901 40.929178 40.927131L919.802358-22.373310999999944zM512.010745 342.94802500000003c-113.237017 0-205.047026 91.775216-205.047026 204.968232 0 113.27488 91.810009 205.04498 205.047026 205.04498 113.213481 0 204.984604-91.7701 204.984604-205.04498C716.995349 434.722218 625.223203 342.94802500000003 512.010745 342.94802500000003z"  horiz-adv-x="1024" />

    
    <glyph glyph-name="anquan" unicode="&#58963;" d="M764.761236-63.61050399999999L258.605338-63.61050399999999c-57.047274 0-103.513562 46.467311-103.513562 103.564727L155.091776 402.016329c0 57.097416 46.467311 103.564727 103.513562 103.564727L764.761236 505.581056c57.047274 0 103.511515-46.466288 103.511515-103.564727l0-362.062106C868.272751-17.143192999999997 821.80851-63.61050399999999 764.761236-63.61050399999999zM258.605338 457.766051c-30.701233 0-55.698556-24.996301-55.698556-55.748698l0-362.062106c0-30.752398 24.997324-55.748698 55.698556-55.748698L764.761236-15.793452000000002c30.701233 0 55.698556 24.997324 55.698556 55.748698L820.459792 402.016329c0 30.753421-24.997324 55.748698-55.698556 55.748698L258.605338 457.765027zM330.172303 457.766051c-13.173021 0-23.856337 10.708899-23.856337 23.907503L306.315966 627.868193c0 127.056768 78.670757 206.015074 205.366298 206.015074 126.694517 0 205.367321-78.958306 205.367321-206.015074 0-13.198603-10.683317-23.908526-23.857361-23.908526-13.224186 0-23.958668 10.708899-23.958668 23.908526 0 102.033861-55.905264 158.200068-157.551292 158.200068-101.646028 0-157.551292-56.165184-157.551292-158.200068l0-146.19464C354.130971 468.47495 343.396489 457.766051 330.172303 457.766051zM577.648674 66.30026399999997L445.715853 66.30026399999997c-5.703909 0-11.04659 2.591011-14.572904 7.05365-3.52529 4.459568-4.821819 10.29446-3.52529 15.816221l23.493064 99.337449c-24.167422 17.97028-52.690036 54.661947-39.206954 105.302301 11.148921 41.72224 51.236941 69.778226 99.778494 69.778226 48.541553 0 88.629573-28.055986 99.780541-69.778226 13.482059-50.640354-15.040555-87.333044-39.206954-105.302301l23.493064-99.337449c1.296529-5.52176 0-11.356652-3.52529-15.816221C588.696288 68.89127599999995 583.353606 66.30026399999997 577.648674 66.30026399999997zM469.207893 103.48311799999999l84.947717 0-21.157879 89.277326c-1.920746 8.271384 1.969864 16.829294 9.489118 20.771069 1.765203 0.932232 45.273113 24.839735 33.035394 70.683852-6.691399 25.231661-32.413224 42.188868-63.841004 42.188868-31.426757 0-57.150628-16.956184-63.83998-42.188868-12.394285-46.388517 31.168883-69.726038 33.035394-70.683852 7.520277-3.941775 11.407817-12.499685 9.490142-20.771069L469.207893 103.48311799999999z"  horiz-adv-x="1024" />

    
    <glyph glyph-name="fangan" unicode="&#58897;" d="M831.639412 575.869912L640.424416 756.8641259999999l0 11.387351-448.208115 0 0-800.225447 639.566374 0 0 607.843882L831.639412 575.869912zM640.424416 705.107345L779.882632 575.869912 640.424416 575.869912 640.424416 705.107345zM800.060183-0.2514770000000226l-576.12139 0 0 736.780463 383.739824 0 0-192.381565 192.381565 0L800.060183-0.2514770000000226zM287.383778 64.216813l448.208115 0 0 31.722492-448.208115 0L287.383778 64.216813zM287.383778 160.407596l448.208115 0 0 31.722492-448.208115 0L287.383778 160.407596z"  horiz-adv-x="1024" />

    
    <glyph glyph-name="bi" unicode="&#58972;" d="M1001.78 641.634l-236.897 232.502c-26.064 25.657-68.545 25.657-94.675 0l-592.129-581.118c-22.206-56.635-62.094-299.228-75.459-390.754 10.039-9.877 15.563-22.102 28.127-27.644 88.222 13.148 346.659 81.579 378.967 93.021l592.065 581.046c26.13 25.718 26.13 67.366 0 92.945v0 0ZM101.748-55.59699999999998l-23.668 23.238 20.349 119.522 115.019-112.915-111.7-29.845ZM362.314 14.17999999999995l-74.397-20.037-175.924 172.676 13.497 79.725 473.648 464.875 47.405-46.475-449.98-441.638 47.338-46.468 449.98 441.63 47.338-46.47-355.232-348.691 47.404-46.468 355.239 348.614 47.34-46.475-473.649-464.796ZM883.366 525.451l-236.823 232.434 71.005 69.776 236.825-232.502-71.007-69.708ZM883.366 525.451Z"  horiz-adv-x="1024" />

    
    <glyph glyph-name="quxiao" unicode="&#58929;" d="M510.736896 503.539268l-375.466667 375.466667-119.466667-119.466667 375.466667-375.466667-375.466667-375.466667 119.466667-119.466667 375.466667 375.466667 375.466667-375.466667 119.466667 119.466667-375.466667 375.466667 375.466667 375.466667-119.466667 119.466667L510.736896 503.539268z"  horiz-adv-x="1024" />

    
    <glyph glyph-name="shuibiao" unicode="&#58893;" d="M511.999996 896c-282.769178 0-512-229.229798-512-512 0-282.769178 229.229798-512 512-512 282.770202 0 512.001023 229.230822 512.001023 512C1024.001019 666.770202 794.770198 896 511.999996 896zM859.567993 36.43404999999996c-45.148269-45.148269-97.716532-80.59355-156.245554-105.34835-60.585867-25.625634-124.954897-38.618553-191.32142-38.618553-66.3655 0-130.735553 12.992919-191.320397 38.618553-58.529021 24.7548-111.097284 60.20008-156.246577 105.34835-45.148269 45.148269-80.592526 97.716532-105.34835 156.245554-25.625634 60.584843-38.618553 124.953873-38.618553 191.320397s12.992919 130.735553 38.618553 191.32142c24.755824 58.529021 60.20008 111.097284 105.34835 156.245554s97.716532 80.592526 156.246577 105.34835C381.264443 862.540957 445.634496 875.533876 511.999996 875.533876c66.3655 0 130.735553-12.992919 191.32142-38.618553 58.529021-24.755824 111.097284-60.20008 156.245554-105.34835 45.148269-45.148269 80.592526-97.717555 105.34835-156.245554 25.625634-60.585867 38.618553-124.954897 38.618553-191.32142s-12.992919-130.735553-38.618553-191.320397C940.160519 134.15058199999999 904.716262 81.58231899999998 859.567993 36.43404999999996zM357.144092 459.576279c22.093181 0 30.757514 18.628266 30.757514 38.772049 0 20.143783-8.664334 38.663578-30.757514 38.663578-21.443381 0-29.566386-18.519796-29.566386-38.663578C327.577706 478.204545 335.700711 459.576279 357.144092 459.576279zM357.685421 522.066519c12.129248 0 12.45466-13.862729 12.45466-23.718191 0-9.855462-0.325411-23.826662-12.45466-23.826662-11.69639 0-12.346189 13.970176-12.346189 23.826662C345.339232 508.20379 345.989031 522.066519 357.685421 522.066519zM459.488015 459.576279c22.094204 0 30.758538 18.628266 30.758538 38.772049 0 20.143783-8.664334 38.663578-30.758538 38.663578-21.443381 0-29.565363-18.519796-29.565363-38.663578C429.922652 478.204545 438.044634 459.576279 459.488015 459.576279zM460.029344 522.066519c12.129248 0 12.45466-13.862729 12.45466-23.718191 0-9.855462-0.324388-23.826662-12.45466-23.826662-11.69639 0-12.346189 13.970176-12.346189 23.826662C447.684178 508.20379 448.332954 522.066519 460.029344 522.066519zM561.831938 459.576279c22.094204 0 30.758538 18.628266 30.758538 38.772049 0 20.143783-8.664334 38.663578-30.758538 38.663578-21.443381 0-29.565363-18.519796-29.565363-38.663578C532.266575 478.204545 540.388557 459.576279 561.831938 459.576279zM562.37429 522.066519c12.130272 0 12.45466-13.862729 12.45466-23.718191 0-9.855462-0.324388-23.826662-12.45466-23.826662-11.69639 0-12.346189 13.970176-12.346189 23.826662C550.028101 508.20379 550.676877 522.066519 562.37429 522.066519zM664.176884 459.576279c22.094204 0 30.758538 18.628266 30.758538 38.772049 0 20.143783-8.664334 38.663578-30.758538 38.663578-21.443381 0-29.565363-18.519796-29.565363-38.663578C634.610498 478.204545 642.733503 459.576279 664.176884 459.576279zM664.718213 522.066519c12.129248 0 12.45466-13.862729 12.45466-23.718191 0-9.855462-0.324388-23.826662-12.45466-23.826662-11.69639 0-12.346189 13.970176-12.346189 23.826662C652.372024 508.20379 653.021823 522.066519 664.718213 522.066519zM511.201817 765.693212c-211.367989 0-382.715495-171.347506-382.715495-382.716518s171.347506-382.716518 382.715495-382.716518c211.369012 0 382.716518 171.347506 382.716518 382.716518S722.570829 765.693212 511.201817 765.693212zM291.817248 532.938124c0 21.350261 17.307178 38.658462 38.658462 38.658462l361.454262 0c21.351284 0 38.658462-17.308201 38.658462-38.658462l0-63.785745c0-21.350261-17.307178-38.658462-38.658462-38.658462L330.474686 430.493917c-21.351284 0-38.658462 17.308201-38.658462 38.658462L291.816225 532.938124zM333.863876 168.79256699999996c-53.051263 0-96.058776 43.007513-96.058776 96.058776 0 53.051263 43.00649 96.058776 96.058776 96.058776 53.052287 0 96.058776-43.007513 96.058776-96.058776C429.922652 211.79905599999995 386.91514 168.79256699999996 333.863876 168.79256699999996zM532.266575 45.97126300000002c-53.052287 0-96.058776 43.007513-96.058776 96.058776 0 53.051263 43.00649 96.058776 96.058776 96.058776 53.051263 0 96.058776-43.007513 96.058776-96.058776C628.325351 88.97877600000004 585.317839 45.97126300000002 532.266575 45.97126300000002zM722.075549 168.79256699999996c-53.052287 0-96.058776 43.007513-96.058776 96.058776 0 53.051263 43.00649 96.058776 96.058776 96.058776 53.052287 0 96.058776-43.007513 96.058776-96.058776C818.134325 211.79905599999995 775.127835 168.79256699999996 722.075549 168.79256699999996zM343.356065 267.67055100000005L331.443757 320.960245l-11.912307-53.28867c-11.710716-4.719488-19.97903-16.182564-19.97903-29.582759 0-17.613146 14.278191-31.892361 31.891338-31.892361s31.891338 14.279215 31.891338 31.892361C363.335095 251.48798699999998 355.066781 262.951063 343.356065 267.67055100000005zM738.739067 267.67055100000005l-11.912307 53.28867-11.912307-53.28867c-11.709693-4.719488-19.97903-16.182564-19.97903-29.582759 0-17.613146 14.278191-31.892361 31.891338-31.892361s31.891338 14.279215 31.891338 31.892361C758.717074 251.48798699999998 750.449783 262.951063 738.739067 267.67055100000005zM544.178883 141.55420200000003l-11.912307 53.28867-11.912307-53.28867c-11.709693-4.720511-19.978007-16.182564-19.978007-29.582759 0-17.613146 14.278191-31.892361 31.891338-31.892361s31.891338 14.279215 31.891338 31.892361C564.157913 125.37163799999996 555.888576 136.83369100000004 544.178883 141.55420200000003z"  horiz-adv-x="1025" />

    
    <glyph glyph-name="sousuo" unicode="&#59035;" d="M1023.761491-67.74724600000002L963.805549-127.70318799999995 692.434948 143.667412C525.881242 7.218882000000008 279.739627 16.716853000000015 124.295155 172.16132500000003-41.283313 337.73979299999996-41.283313 606.227081 124.295155 771.84795 289.873623 937.384017 558.360911 937.384017 723.939379 771.84795 879.426253 616.361077 888.881822 370.17706 752.39089 203.62335399999995L1023.761491-67.74724600000002ZM663.262609 712.019213C530.715031 844.566791 316.035445 844.736398 183.699876 712.44323 51.406708 580.1500619999999 51.618716 365.42807500000004 184.166294 232.880497 316.713872 100.33291899999995 531.435859 100.12091099999998 663.729027 232.45648000000006 796.022195 364.70724600000005 795.852588 579.471636 663.262609 712.019213Z"  horiz-adv-x="1024" />

    
    <glyph glyph-name="anonymous-iconfont" unicode="&#58882;" d="M480.977 347.154c-126.224 20.324-271.701 56.692-271.701 211.798 0 154.035 143.339 213.938 271.701 213.938v95.203h51.344v-95.203c182.918-3.21 268.493-87.714 277.051-208.59h-106.969c-9.628 78.087-71.669 114.458-170.082 118.736v-240.681c209.661-34.23 297.375-87.714 297.375-222.496 0-158.315-148.688-223.566-297.375-223.566v-95.203h-51.344v95.205c-152.966 0-286.677 83.436-286.677 237.471h106.97c3.21-53.485 34.23-139.059 179.709-147.617v261.004ZM480.977 683.038c-102.691-5.348-164.732-43.857-164.732-116.597 0-64.18 58.832-105.899 164.732-117.665v234.262ZM532.321 86.149c131.572 0 190.405 54.554 190.405 121.946 0 69.53-52.415 111.247-190.405 129.433v-251.378Z"  horiz-adv-x="1024" />

    
    <glyph glyph-name="jia01" unicode="&#58900;" d="M-0.000004 896l0-1024 1024 0L1023.999996 896-0.000004 896zM983.067748-87.06775200000004L40.932244-87.06775200000004 40.932244 855.067752l942.135504 0L983.067748-87.06775200000004zM287.83147 363.53387599999996l203.702402 0 0-203.702402c0-11.30344 9.162684-20.466124 20.466124-20.466124s20.466124 9.162684 20.466124 20.466124L532.46612 363.53387599999996l203.702402 0c11.30344 0 20.466124 9.162684 20.466124 20.466124s-9.162684 20.466124-20.466124 20.466124L532.46612 404.466124 532.46612 608.1685259999999c0 11.30344-9.162684 20.466124-20.466124 20.466124s-20.466124-9.162684-20.466124-20.466124l0-203.702402L287.83147 404.466124c-11.30344 0-20.466124-9.162684-20.466124-20.466124S276.52803 363.53387599999996 287.83147 363.53387599999996z"  horiz-adv-x="1024" />

    
    <glyph glyph-name="jia" unicode="&#58892;" d="M1024 412.444444L540.444444 412.444444 540.444444 896 483.555556 896 483.555556 412.444444 0 412.444444 0 355.555556 483.555556 355.555556 483.555556-128 540.444444-128 540.444444 355.555556 1024 355.555556Z"  horiz-adv-x="1024" />

    
    <glyph glyph-name="fcstubiao25" unicode="&#58923;" d="M959.83616 101.21216000000004c-48.64 40.96-87.20384 94.98624-117.78048 165.23264-34.5088 79.01184-51.26144 169.61536-52.8384 284.91776-1.47456 101.9904-49.70496 175.47264-147.47648 224.58368-16.896 8.45824-35.18464 13.80352-54.5792 19.47648-8.82688 2.6624-17.69472 5.18144-26.33728 8.11008L553.69728 805.888l0.57344 7.4752c1.80224 22.91712-2.37568 40.67328-12.06272 51.2C535.4496 871.79264 526.06976 875.52 514.29376 875.52c-15.50336 0-27.89376-4.89472-35.75808-14.09024-9.23648-10.77248-12.41088-27.11552-9.23648-47.28832l1.20832-7.9872-7.59808-2.60096c-8.99072-3.05152-18.20672-5.79584-27.36128-8.4992-19.7632-5.91872-38.48192-11.42784-55.64416-20.2752-95.10912-49.11104-142.6432-122.10176-145.14176-222.9248-1.4336-57.05728-7.168-113.72544-17.16224-168.38656C196.87424 269.70111999999995 147.06688 176.04607999999996 69.4272 105.18528000000003c-14.82752-13.59872-15.5648-17.42848-6.41024-34.59072C74.79296 48.721919999999955 92.32384 37.29408000000001 116.65408 35.84000000000003c2.88768-0.24576 5.75488-0.26624 8.64256-0.26624l12.30848 0.08192 237.3632 0 1.67936-7.43424c20.91008-91.19744 61.952-133.07904 133.07904-135.59808L514.74432-107.51999999999998c27.42272 0 52.44928 8.31488 74.40384 24.63744 36.78208 27.2384 55.31648 62.99648 56.64768 109.21984l0.26624 9.33888 173.1584-0.06144c27.68896 0 55.41888 0 83.12832 0.08192 30.35136 0.14336 54.53824 17.1008 63.03744 44.25728C968.54016 90.00959999999998 967.20896 94.98623999999995 959.83616 101.21216000000004zM513.39264-81.5104l-3.39968 0.06144c-56.09472 1.536-104.2432 47.69792-105.2672 100.7616-0.14336 6.41024 3.44064 11.53024 6.32832 15.60576 0.86016 1.35168 1.82272 2.58048 2.51904 3.85024l6.92224 12.71808 9.03168-11.30496c0.8192-1.04448 1.82272-2.048 2.82624-3.09248 3.33824-3.33824 7.49568-7.49568 8.58112-13.59872 7.94624-42.57792 24.84224-59.74016 67.23584-68.03456 6.20544-1.20832 10.77248-5.4272 14.39744-8.82688 1.20832-1.14688 2.37568-2.27328 3.66592-3.23584l10.24-7.65952L513.39264-81.5104z"  horiz-adv-x="1024" />

    
    <glyph glyph-name="shuaxin" unicode="&#58924;" d="M863.552 672.064c0 4.288 0 8.576 0 12.864 0 47.808-0.512 95.68 0.448 143.488 0.192 8.896 4.096 19.52 9.984 25.984 11.072 12.16 32.64 5.76 37.632-10.048 1.792-5.696 2.432-12.032 2.432-18.048 0.128-76.032 0.128-152.064 0.128-228.16 0-4.032 0-8 0-12.736-3.84-0.256-6.592-0.64-9.344-0.64-78.912 0-157.824-0.064-236.736 0.064C646.08 584.96 633.344 600.1279999999999 639.872 618.3679999999999c4.288 12.096 14.144 16.256 26.048 16.448 14.72 0.256 29.44 0.064 44.16 0.064 33.536 0 67.072 0 100.544 0 3.904 0 7.872 0.384 15.68 0.832-16.384 16.896-29.504 32.448-44.672 45.696-83.712 73.024-180.608 110.4-292.416 102.784C342.656 774.272 233.152 703.296 159.808 576.96 126.208 518.976 111.872 455.04 109.888 388.16c-0.64-22.528-17.6-34.688-35.584-26.368C63.744 366.72 60.16 375.93600000000004 60.16 386.88c0.128 46.912 7.424 92.8 22.144 137.28 31.936 96.256 89.792 173.568 172.864 231.488 56.448 39.36 118.976 64.128 187.2 74.56 87.552 13.44 171.904 2.368 252.8-33.28 61.056-26.88 113.472-66.048 157.504-116.224 2.688-3.072 5.312-6.208 7.936-9.28C861.632 671.744 862.592 671.8720000000001 863.552 672.064zM197.312 131.904c17.664-17.856 31.872-34.112 48-48.32 62.656-55.36 135.744-89.088 218.752-98.688 100.864-11.648 194.112 11.328 277.696 69.504 73.408 51.136 123.968 120 152.32 204.864 13.184 39.424 18.368 80.256 20.096 121.664 0.832 21.376 18.24 33.152 35.776 24.768 11.008-5.248 14.016-15.104 13.888-26.432-0.384-39.04-5.376-77.44-16-114.944-32.064-112.896-97.28-201.472-196.864-263.616-103.168-64.448-215.36-83.52-334.08-58.496-99.072 20.864-181.696 71.168-248.128 147.712-1.856 2.112-3.84 4.16-7.68 8.32-0.32-6.272-0.64-10.368-0.64-14.528-0.064-48.64 0.064-97.28-0.064-145.984-0.064-16.32-6.784-26.56-18.688-29.568-16.704-4.224-30.528 6.912-31.68 26.112-0.64 10.176-0.128 20.416-0.128 30.656 0 71.936 0 143.872 0 216.768 3.456 0.384 6.528 1.088 9.6 1.088 78.912 0.064 157.824 0.064 236.736-0.064 21.888-0.064 34.624-15.488 27.904-33.664-4.416-12.032-14.4-16.064-26.24-16.192-17.152-0.192-34.368-0.064-51.52-0.064-31.04 0-62.144 0-93.184 0C209.152 132.67200000000003 205.248 132.288 197.312 131.904z"  horiz-adv-x="1024" />

    
    <glyph glyph-name="setting" unicode="&#58918;" d="M540.828582 755.052874c15.637142 0 28.523637-12.891611 28.523637-28.562523l0-34.259268c0-15.711843 12.311397-32.381501 27.257807-37.014009l47.717791-19.657712c5.135974-2.75474 11.178597-4.070712 17.313318-4.070712 10.407024 0 21.074991 3.787256 28.025287 10.769274l24.295336 24.281009c5.567809 5.547343 12.886495 8.322549 20.202111 8.322549s14.628162-2.775206 20.182668-8.322549l40.382733-40.355103c11.135618-11.101849 11.135618-29.275767 0-40.414455l-24.297382-24.26259c-11.045567-11.113105-14.093996-31.507598-6.670933-45.340651l19.648502-47.798633c4.679579-14.993482 21.309328-27.263947 37.004799-27.263947l34.257222 0c15.666818 0 28.493961-12.830213 28.493961-28.553313l0-57.127092c0-15.71389-12.828167-28.551266-28.493961-28.551266l-34.257222 0c-15.632025 0-32.32522-12.268418-37.004799-27.233248l-19.648502-47.800679c-7.423063-13.856589-4.374634-34.314527 6.670933-45.370327l24.297382-24.260543c11.135618-11.124362 11.135618-29.284977 0-40.416502l-40.382733-40.384779c-5.554506-5.547343-12.867052-8.320503-20.182668-8.320503s-14.634302 2.772136-20.202111 8.320503l-24.179702 24.308639c-6.972808 6.947226-17.61417 10.726296-27.995611 10.726296-6.15621 0-12.221346-1.329275-17.369599-4.117784l-47.805796-19.653619c-14.94641-4.666276-27.257807-21.304212-27.257807-37.023218l0-34.160008c0-15.670911-12.886495-28.534893-28.523637-28.534893l-57.045227 0c-15.752776 0-28.585035 12.863982-28.585035 28.534893L455.199343 75.64305000000002c0 15.717983-12.225439 32.356942-27.220968 37.023218l-47.871287 19.653619c-5.136997 2.788509-11.183713 4.117784-17.322527 4.117784-10.349719 0-20.958334-3.781116-27.894304-10.726296l-24.326035-24.308639c-5.552459-5.547343-12.862959-8.320503-20.170388-8.320503-7.30743 0-14.612813 2.772136-20.152992 8.320503l-40.414455 40.384779c-11.047614 11.131525-11.047614 29.29214 0 40.416502l24.297382 24.260543c11.105942 11.056823 14.093996 31.513738 6.702656 45.370327l-19.709901 47.800679c-4.623297 14.963807-21.221324 27.233248-36.941354 27.259854l-34.227546 0c-15.69854 0-28.555359 12.867052-28.555359 28.587082l0 57.063647c0 15.7231 12.857842 28.553313 28.555359 28.553313l34.227546-0.031722c15.721053 0 32.354895 12.277628 36.998659 27.267017l19.653619 47.828308c7.452739 13.834076 4.432962 34.227546-6.702656 45.340651l-24.233937 24.290219c-11.111059 11.111059-11.111059 29.284977 0 40.386826l40.35101 40.355103c5.54018 5.547343 12.844539 8.322549 20.152992 8.322549 7.30743 0 14.618952-2.775206 20.170388-8.322549l24.357757-24.281009c6.966669-6.993275 17.59268-10.775414 27.969005-10.775414 6.125511 0 12.164041 1.318018 17.309224 4.077875l47.778166 19.657712c14.995529 4.632507 27.220968 21.302165 27.220968 37.014009l0 34.259268c0 15.670911 12.861936 28.562523 28.585035 28.562523L540.828582 755.050828M512.364297 241.35623199999998c78.783321 0 142.648884 63.848167 142.648884 142.691863 0 78.805834-63.866586 142.699026-142.648884 142.699026-78.805834 0-142.66935-63.893192-142.66935-142.699026C369.693924 305.20439899999997 433.558463 241.35623199999998 512.364297 241.35623199999998M540.828582 829.280436l-57.045227 0c-56.691163 0-102.812597-46.111201-102.812597-102.790084l0-10.349719-10.637268-4.376681-7.367805 7.344269c-19.318998 19.308765-45.116547 29.980825-72.573899 29.980825-27.487028 0-53.298903-10.691503-72.681346-30.104645l-40.312124-40.317241c-19.382443-19.365046-30.069853-45.185108-30.069853-72.67316 0-27.477818 10.680247-53.29174 30.074969-72.685439l7.236821-7.253194-4.411473-10.734482-10.213619 0.00921c-56.743352 0-102.851483-46.107107-102.851483-102.780875l0-57.063647c0-56.692187 46.108131-102.814644 102.782921-102.814644l10.245342 0 4.419659-10.717086-7.232728-7.221472c-39.917128-40.194444-39.922245-105.244996-0.236384-145.231709l40.629349-40.60172c19.333324-19.354813 45.14213-30.0412 72.621994-30.0412 27.449165 0 53.244668 10.666944 72.631204 30.03506l7.236821 7.230682 10.710946-4.397147 0-10.241248c0-56.662511 46.121434-102.762455 102.812597-102.762455l57.045227 0c56.657394 0 102.751199 46.099944 102.751199 102.762455l0 10.236132 10.720156 4.408403 7.033184-7.072069c19.638269-19.560498 45.416376-30.199813 72.829725-30.199813 27.448142 0 53.242622 10.662851 72.630181 30.023804l40.421618 40.423665c19.400862 19.392676 30.091342 45.213761 30.091342 72.695672 0 27.491121-10.69662 53.317323-30.118971 72.719208l-7.239891 7.228635 4.396123 10.69662 10.326183 0c56.641021 0 102.721523 46.107107 102.721523 102.778828l0 57.127092c0 56.673767-46.080501 102.780875-102.721523 102.780875l-10.31288 0-4.40124 10.705829 7.220449 7.210215c19.467377 19.472494 30.15274 45.320185 30.130228 72.829725-0.022513 27.491121-10.738575 53.30095-30.173207 72.67623l-40.320311 40.291658c-19.397792 19.379373-45.196365 30.046317-72.650647 30.046317-27.420513 0-53.202713-10.644431-72.598458-29.971615l-7.352455-7.350408-10.632151 4.380774 0 10.342556C643.580804 783.169235 597.485977 829.280436 540.828582 829.280436L540.828582 829.280436zM512.364297 315.583794c-37.739533 0-68.441788 30.712489-68.441788 68.464301 0 37.754882 30.703279 68.471464 68.441788 68.471464 37.727253 0 68.421322-30.716582 68.421322-68.471464C580.785619 346.296283 550.09155 315.583794 512.364297 315.583794L512.364297 315.583794z"  horiz-adv-x="1024" />

    
    <glyph glyph-name="hcd" unicode="&#58936;" d="M908.353608 1.034817999999973L115.633089 1.034817999999973c-19.037589 0-34.464953 15.240099-34.464953 34.079166 0 18.790972 15.426341 34.033118 34.464953 34.033118l51.692313 0L167.325401 341.45399799999996l51.703569 0 0-272.306896 206.789717 0L425.818687 358.470557l34.875299 0 0-289.323455 361.503381 0L822.197366 341.45399799999996l51.702546 0 0-272.306896 34.452673 0c19.025309 0 34.476209-15.242146 34.476209-34.033118C942.829817 16.27389400000004 927.378917 1.034817999999973 908.353608 1.034817999999973zM497.110383 219.62632499999995l127.551024 125.986389 13.72049-10.470469L509.287727 207.612711 497.110383 219.62632499999995zM776.242731 250.01545l-129.072681-127.483486-12.199856 12.013615 127.551024 125.986389L776.242731 250.01545zM514.33672 134.54557799999998l207.163223 204.617238 12.17939-12.06171-207.163223-204.569142L514.33672 134.54557799999998zM326.738088 302.463985c0 16.82827 13.81361 30.479175 30.876218 30.479175 17.063631 0 30.878265-13.650905 30.878265-30.479175 0-10.844999-5.752004-20.288069-14.376429-25.710568l0-101.770871c8.625448-5.4225 14.376429-14.865569 14.376429-25.710568 0-16.830317-13.814634-30.481222-30.878265-30.481222-17.062608 0-30.876218 13.650905-30.876218 30.481222 0 10.191106 5.117554 19.21462 12.924357 24.729218L339.662445 277.73476800000003C331.855642 283.25141199999996 326.738088 292.228877 326.738088 302.463985zM861.885274 378.33702300000004c-33.752732 0-61.33288 28.79686-63.648622 65.261353l-12.057617 0c-2.316765-36.464493-29.895891-65.261353-63.648622-65.261353s-61.310368 28.79686-63.62304 65.261353l-12.08627 0c-2.314719-36.464493-29.893844-65.261353-63.646576-65.261353s-61.310368 28.79686-63.625086 65.261353l-12.06171 0c-2.336208-36.464493-29.91738-65.261353-63.669088-65.261353-33.753755 0-61.311391 28.79686-63.624063 65.261353l-12.084223 0c-2.315742-36.464493-29.895891-65.261353-63.636343-65.261353-33.751708 0-61.312414 28.79686-63.636343 65.261353l-12.072967 0c-2.325975-36.464493-29.894867-65.261353-63.647599-65.261353-33.740452 0-61.310368 28.79686-63.636343 65.261353l-3.085268 0 0 17.014512 827.205938 0 0-17.014512-0.092098 0C923.195641 407.133883 895.638005 378.33702300000004 861.885274 378.33702300000004zM178.099792 715.916529l667.797345 0 79.704296-238.287081L98.395496 477.629447 178.099792 715.916529zM787.74367 494.646006l34.45472 0-51.704592 204.253964-34.452673 0L787.74367 494.646006zM649.859299 494.646006l34.478256 0-32.022321 204.253964-34.45472 0L649.859299 494.646006zM494.772128 494.646006l34.453696 0L529.225825 698.8999699999999 494.772128 698.8999699999999 494.772128 494.646006zM376.827903 494.646006l31.999808 204.253964L374.349455 698.8999699999999 342.351694 494.646006 376.827903 494.646006zM238.955812 494.646006l51.703569 204.253964-34.464953 0L204.490859 494.646006 238.955812 494.646006zM167.325401 766.966205l689.324638 0 0-34.032094L167.325401 732.934111 167.325401 766.966205z"  horiz-adv-x="1024" />

    
    <glyph glyph-name="shouye-copy" unicode="&#58881;" d="M655.262868-32.220586000000026l-30.699186 0L624.563682 306.70354299999997c0 13.32447-11.550057 24.163329-25.747407 24.163329L426.207032 330.86687199999994c-14.19735 0-25.748431-10.839883-25.748431-24.163329l0-338.924129-30.699186 0L369.759415 306.70354299999997c0 30.252001 25.322735 54.862515 56.447617 54.862515l172.609243 0c31.124881 0 56.446593-24.611537 56.446593-54.862515L655.262868-32.220586000000026zM859.827917-63.01391699999999L164.012448-63.01391699999999 164.012448 406.780843 194.711634 406.780843 194.711634-32.31473100000005 829.128731-32.31473100000005 829.128731 406.780843 859.827917 406.780843ZM94.991468 371.731582L73.284073 393.437953 512 832.154903 950.012915 394.140964 928.305521 372.43357000000003 512 788.739091Z"  horiz-adv-x="1024" />

    
    <glyph glyph-name="shanchutubiao" unicode="&#58891;" d="M909.7216 761.924267L706.924089 761.924267 706.924089 836.539733C706.924089 869.330489 680.254578 896 647.486578 896L387.299556 896C354.599822 896 327.953067 869.330489 327.953067 836.539733L327.953067 761.924267 108.088889 761.924267C98.645333 761.924267 91.022222 754.2784 91.022222 744.8576 91.022222 735.4368 98.645333 727.790933 108.088889 727.790933L169.688178 727.790933 195.151644 11.878400000000056C195.151644-56.024178000000006 250.356622-111.27466700000002 318.190933-111.27466700000002L699.642311-111.27466700000002C767.453867-111.27466700000002 822.658844-56.024178000000006 822.658844 11.286755999999968L848.099556 727.790933 909.7216 727.790933C919.1424 727.790933 926.788267 735.4368 926.788267 744.8576 926.788267 754.2784 919.1424 761.924267 909.7216 761.924267L909.7216 761.924267ZM362.0864 836.539733C362.0864 850.511644 373.418667 861.866667 387.299556 861.866667L647.486578 861.866667C661.412978 861.866667 672.790756 850.511644 672.790756 836.539733L672.790756 761.924267 362.0864 761.924267 362.0864 836.539733 362.0864 836.539733ZM788.525511 11.878400000000056C788.525511-37.205332999999996 748.657778-77.14133300000003 699.642311-77.14133300000003L318.190933-77.14133300000003C269.175467-77.14133300000003 229.284978-37.205332999999996 229.284978 12.515555999999947L203.844267 727.790933 813.943467 727.790933 788.525511 11.878400000000056 788.525511 11.878400000000056ZM640.659911 137.46631100000002C650.080711 137.46631100000002 657.726578 145.11217799999997 657.726578 154.53297799999996L657.726578 495.707022C657.726578 505.127822 650.080711 512.773689 640.659911 512.773689 631.239111 512.773689 623.593244 505.127822 623.593244 495.707022L623.593244 154.53297799999996C623.593244 145.11217799999997 631.239111 137.46631100000002 640.659911 137.46631100000002L640.659911 137.46631100000002ZM378.356622 137.46631100000002C387.777422 137.46631100000002 395.423289 145.11217799999997 395.423289 154.53297799999996L395.423289 495.707022C395.423289 505.127822 387.777422 512.773689 378.356622 512.773689 368.935822 512.773689 361.289956 505.127822 361.289956 495.707022L361.289956 154.53297799999996C361.289956 145.11217799999997 368.935822 137.46631100000002 378.356622 137.46631100000002L378.356622 137.46631100000002ZM508.472889 59.36924399999998C517.893689 59.36924399999998 525.539556 67.01511100000005 525.539556 76.43591100000003L525.539556 573.781333C525.539556 583.2248890000001 517.893689 590.848 508.472889 590.848 499.052089 590.848 491.406222 583.2248890000001 491.406222 573.781333L491.406222 76.43591100000003C491.406222 67.01511100000005 499.052089 59.36924399999998 508.472889 59.36924399999998L508.472889 59.36924399999998Z"  horiz-adv-x="1024" />

    
    <glyph glyph-name="iconfont-edu10" unicode="&#58949;" d="M616.96 491.52c20.48-20.48 56.32-20.48 76.8 0l197.12 194.56 0-156.16c0-23.04 17.92-40.96 38.4-40.96l28.16 0c23.04 0 43.52 15.36 43.52 35.84L1000.96 808.96c0 0 0 0 0 0L1000.96 829.44c0 10.24-2.56 20.48-10.24 28.16C983.04 865.28 972.8 870.4 960 870.4l-20.48 0c0 0 0 0 0 0L655.36 870.4C632.32 870.4 614.4 852.48 614.4 829.44l0-28.16c2.56-25.6 23.04-40.96 46.08-40.96l151.04 0-194.56-192C596.48 545.28 596.48 512 616.96 491.52L616.96 491.52 616.96 491.52zM409.6 276.48c-20.48 20.48-56.32 20.48-76.8 0l-197.12-192 0 153.6c0 23.04-17.92 43.52-38.4 43.52L69.12 281.6C46.08 281.6 25.6 263.67999999999995 25.6 243.20000000000005l0-284.16c0 0 0 0 0 0l0-20.48c0-10.24 2.56-20.48 10.24-28.16C40.96-97.27999999999997 51.2-102.39999999999998 64-102.39999999999998l20.48 0c0 0 0 0 0 0l284.16 0c23.04 0 40.96 17.92 40.96 40.96l0 28.16c0 25.6-23.04 38.4-46.08 38.4l-151.04 0 197.12 194.56C430.08 222.72000000000003 430.08 256 409.6 276.48L409.6 276.48 409.6 276.48zM409.6 276.48"  horiz-adv-x="1024" />

    
    <glyph glyph-name="zhongzhimima1" unicode="&#59243;" d="M490.912768 301.852672l0-35.011584c0-14.44352 11.751424-26.194944 26.19392-26.194944 14.444544 0 26.195968 11.751424 26.195968 26.194944l0 34.988032c13.26592 8.722432 21.269504 23.313408 21.269504 39.448576 0 26.17344-21.293056 47.466496-47.466496 47.466496-26.174464 0-47.46752-21.293056-47.46752-47.466496C469.639168 325.412864 477.809664 310.56896 490.912768 301.852672zM310.12864 421.050368l0-212.692992c0-23.23968 18.90816-42.14784 42.149888-42.14784l319.038464 0c23.232512 0 42.13248 18.907136 42.13248 42.14784L713.449472 421.050368c0 23.232512-18.899968 42.13248-42.13248 42.13248L375.799808 463.182848c4.018176 2.669568 7.26016 6.404096 9.3184 10.832896l0.221184-0.016384 0.269312 1.137664c1.024 2.501632 1.680384 5.20192 1.902592 8.036352 6.621184 27.30496 22.363136 52.042752 44.384256 69.71904 22.872064 18.359296 50.49856 28.063744 79.893504 28.063744 45.198336 0 87.436288-24.323072 110.35136-63.507456 4.325376-9.181184 13.58336-15.079424 23.764992-15.079424 14.48448 0 26.267648 11.784192 26.267648 26.267648 0 5.300224-1.567744 10.391552-4.540416 14.759936-15.56992 26.78784-37.844992 49.257472-64.439296 64.995328-27.584512 16.324608-59.19232 24.952832-91.405312 24.952832-41.959424 0-82.697216-14.285824-114.70848-40.224768-31.773696-25.747456-53.763072-61.937664-61.927424-101.917696-0.095232-0.412672-0.177152-0.827392-0.25088-1.246208l-0.047104-0.22528c-0.064512-0.316416-0.130048-0.633856-0.190464-0.953344l-2.051072-11.353088 3.1232-0.2048c1.26976-3.989504 3.483648-7.643136 6.529024-10.688512 1.422336-1.422336 2.980864-2.656256 4.640768-3.704832C326.1952 460.181504 310.12864 442.462208 310.12864 421.050368zM362.519552 229.629952 362.519552 399.776768c0 7.3472 0.768 9.472 1.041408 9.993216 0.521216 0.272384 2.642944 1.040384 9.972736 1.040384l276.509696 0c7.356416 0 9.472-0.772096 9.98912-1.045504 0.272384-0.516096 1.045504-2.632704 1.045504-9.988096l0-170.146816c0-7.353344-0.772096-9.470976-1.04448-9.988096-0.518144-0.272384-2.635776-1.04448-9.990144-1.04448L373.532672 218.597376c-7.329792 0-9.45152 0.768-9.972736 1.040384C363.287552 220.158976 362.519552 222.282752 362.519552 229.629952zM993.161216 478.032896c-2.75968 4.697088-7.798784 7.578624-13.243392 7.578624-0.028672 0-0.060416 0-0.089088 0l-60.602368-0.352256c-11.767808 40.766464-29.541376 79.420416-52.919296 115.052544-25.14944 38.332416-56.111104 72.168448-92.024832 100.568064-36.271104 28.681216-76.587008 51.013632-119.829504 66.37568-44.742656 15.895552-91.644928 23.955456-139.40224 23.955456l-2.439168 0c-112.438272-0.651264-217.89696-45.431808-296.948736-126.09536-78.998528-80.623616-122.15296-187.447296-121.51296-300.792832 0.651264-113.349632 45.026304-219.666432 124.950528-299.365376 79.296512-79.081472 184.351744-122.633216 295.814144-122.633216l0.05632 0 2.491392 0c134.857728 0.797696 262.156288 67.478528 340.521984 178.37056 4.86912 6.889472 3.269632 16.416768-3.581952 21.339136l-22.6304 16.257024c-3.324928 2.388992-7.462912 3.351552-11.50464 2.673664-4.036608-0.677888-7.638016-2.939904-10.001408-6.283264-67.495936-95.504384-177.086464-152.930304-293.060608-153.612288l-2.234368 0c-95.936512 0-186.376192 37.490688-254.655488 105.56416-68.867072 68.68992-107.103232 160.323584-107.662336 258.021376-0.560128 97.718272 36.625408 189.786112 104.707072 259.247104 68.03968 69.44256 158.81216 107.998208 255.507456 108.562432l2.183168 0c40.512512 0 80.321536-6.744064 118.3232-20.0448 36.753408-12.863488 71.112704-31.591424 102.125568-55.661568 30.717952-23.840768 57.351168-52.293632 79.161344-84.566016 18.351104-27.155456 32.888832-56.438784 43.353088-87.291904l-59.57632-0.349184c-5.477376-0.031744-10.5216-2.977792-13.242368-7.7312s-2.70336-10.596352 0.045056-15.3344l91.598848-157.932544c2.763776-4.764672 7.894016-7.68512 13.375488-7.653376 5.508096 0.031744 10.57792 3.009536 13.2864 7.805952l89.791488 158.99136C995.986432 467.467264 995.936256 473.310208 993.161216 478.032896zM514.915328-42.314752 514.915328-42.314752 514.915328-42.314752 514.915328-42.314752z"  horiz-adv-x="1024" />

    
    <glyph glyph-name="icon_delete" unicode="&#58904;" d="M909.050991 726.523097l-217.554898 0 0 31.346939c0 39.5866-32.205493 71.792093-71.793116 71.792093L408.15591 829.662129c-39.5866 0-71.792093-32.205493-71.792093-71.792093l0-31.346939L113.349581 726.523097c-11.013845 0-19.942191-8.940626-19.942191-19.954471s8.928347-19.954471 19.942191-19.954471l84.264149 0 0-640.687918c0-60.479443 49.203632-109.683075 109.683075-109.683075l416.474366 0c60.479443 0 109.683075 49.203632 109.683075 109.683075L833.454246 686.614156l75.595722 0c11.012821 0 19.942191 8.940626 19.942191 19.954471S920.063813 726.523097 909.050991 726.523097zM376.2482 757.869013c0 17.593703 14.314007 31.907711 31.907711 31.907711l211.547067 0c17.593703 0 31.907711-14.314007 31.907711-31.907711l0-31.346939L376.2482 726.522074 376.2482 757.869013zM793.569864 45.92521499999998c0-38.486546-31.312146-69.798692-69.798692-69.798692L307.297828-23.873477999999977c-38.486546 0-69.798692 31.312146-69.798692 69.798692L237.499136 684.9574230000001l556.070728 0L793.569864 45.92521499999998zM510.662539 34.72308199999998c11.012821 0 19.954471 8.92937 19.954471 19.942191L530.61701 601.0872469999999c0 11.013845-8.94165 19.942191-19.954471 19.942191s-19.954471-8.928347-19.954471-19.942191L490.708068 54.66527299999996C490.708068 43.65245200000004 499.649717 34.72308199999998 510.662539 34.72308199999998zM374.562814 94.55067899999995c11.012821 0 19.954471 8.92937 19.954471 19.942191L394.517285 541.25965c0 11.013845-8.94165 19.942191-19.954471 19.942191s-19.954471-8.928347-19.954471-19.942191l0-426.76678C354.608344 103.48004900000001 363.549993 94.55067899999995 374.562814 94.55067899999995zM649.832182 94.55067899999995c11.012821 0 19.954471 8.92937 19.954471 19.942191L669.786653 541.25965c0 11.013845-8.94165 19.942191-19.954471 19.942191s-19.954471-8.928347-19.954471-19.942191l0-426.76678C629.877711 103.48004900000001 638.81936 94.55067899999995 649.832182 94.55067899999995z"  horiz-adv-x="1024" />

    
    <glyph glyph-name="tuichu" unicode="&#58943;" d="M985.314364 438.150573L824.650451 638.985488C816.876785 648.698447 805.246916 654.06211 793.276898 654.06211 788.832316 654.06211 784.346473 653.321929 779.987787 651.790967 763.890929 646.147236 753.115317 630.950585 753.115317 613.891126L753.115317 493.393472 431.782792 493.393472C387.42016 493.393472 351.450232 457.424691 351.450232 413.056211 351.450232 368.68890899999997 387.42016 332.724835 431.782792 332.724835L753.115317 332.724835 753.115317 212.22600599999998C753.115317 195.16772000000003 763.890929 179.97107200000005 779.987787 174.32145300000002 784.346473 172.79638 788.832316 172.056197 793.276898 172.056197 805.246916 172.056197 816.872087 177.41515000000004 824.650451 187.13282000000004L985.314364 387.967733C997.053741 402.636021 997.053741 423.482286 985.314364 438.150573ZM592.451403 91.72364300000004L271.118818 91.72364300000004 271.118818 91.73776299999997C270.907031 91.73776299999997 270.699942 91.72364300000004 270.489299 91.72364300000004 226.465611 91.72364300000004 190.78156 127.69242699999995 190.78156 172.06090700000004L190.78156 654.057403 190.795716 654.057403C190.795716 654.269219 190.78156 654.476328 190.78156 654.686968 190.78156 698.70595 226.751548 734.389956 271.118818 734.389956L592.451403 734.389956C636.813975 734.389956 672.783962 770.358738 672.783962 814.72604 672.783962 859.094519 636.818733 895.058594 592.451403 895.058594L190.786259 895.058594C102.051659 895.058594 30.117647 823.124561 30.117647 734.389956L30.117647 91.72364300000004C30.117647 2.9937479999999823 102.051659-68.94028800000001 190.786259-68.94028800000001L592.451403-68.94028800000001C636.818733-68.94028800000001 672.783962-32.976215000000025 672.783962 11.391089999999963 672.783962 55.75957100000005 636.818733 91.72364300000004 592.451403 91.72364300000004Z"  horiz-adv-x="1024" />

    
    <glyph glyph-name="shangla" unicode="&#60026;" d="M569.31 598.119c-12.971 12.974-30.667 20.329-49.05 20.329s-36.008-7.287-49.05-20.329L148.448 275.35699999999997c-13.254-13.252-20.329-31.012-20.329-49.05 0-8.95 1.738-17.972 5.276-26.575 10.751-25.877 36.077-42.804 64.105-42.804l645.446 0c28.026 0 53.352 16.857 64.105 42.804 10.752 26.017 4.856 55.709-15.057 75.622l-322.69 322.762L569.31 598.119z"  horiz-adv-x="1024" />

    
    <glyph glyph-name="dui" unicode="&#58894;" d="M489.711879 134.54148499999997L375.66338 22.314471000000026l-6.910387-7.615445M367.927185 14.698002999999972L46.032918 331.41843400000005l121.784694 119.825063 193.508225-190.396351L840.213695 789.813562l121.750925-119.842459L489.711879 134.54148499999997"  horiz-adv-x="1024" />

    
    <glyph glyph-name="qita" unicode="&#58973;" d="M892.483664-43.11572799999999L593.999572-43.11572799999999c-23.550369 0-42.640146 19.089777-42.640146 42.638099L551.359426 298.00851c0 23.548322 19.089777 42.638099 42.640146 42.638099l298.484092 0c23.548322 0 42.640146-19.089777 42.640146-42.638099l0-298.486138C935.12381-24.025949999999966 916.031986-43.11572799999999 892.483664-43.11572799999999zM892.483664 276.685879c0 11.775184-9.5454 21.322631-21.320585 21.322631L615.320157 298.00851c-11.775184 0-21.320585-9.547447-21.320585-21.322631L593.999572 20.84500300000002c0-11.775184 9.5454-21.322631 21.320585-21.322631l255.842922 0c11.775184 0 21.320585 9.547447 21.320585 21.322631L892.483664 276.685879zM892.483664 425.927925L593.999572 425.927925c-23.550369 0-42.640146 19.091824-42.640146 42.642193L551.359426 767.053186c0 23.550369 19.089777 42.643216 42.640146 42.643216l298.484092 0c23.548322 0 42.640146-19.091824 42.640146-42.643216l0-298.482045C935.12381 445.020772 916.031986 425.927925 892.483664 425.927925zM892.483664 745.734648c0 11.775184-9.5454 21.318538-21.320585 21.318538L615.320157 767.053186c-11.775184 0-21.320585-9.543354-21.320585-21.318538l0-255.845992c0-11.775184 9.5454-21.318538 21.320585-21.318538l255.842922 0c11.775184 0 21.320585 9.543354 21.320585 21.318538L892.483664 745.734648zM423.436942-43.11572799999999L124.95285-43.11572799999999c-23.550369 0-42.640146 19.089777-42.640146 42.638099L82.312704 298.00851c0 23.548322 19.089777 42.638099 42.640146 42.638099l298.484092 0c23.548322 0 42.640146-19.089777 42.640146-42.638099l0-298.486138C466.078111-24.025949999999966 446.985264-43.11572799999999 423.436942-43.11572799999999zM423.436942 276.685879c0 11.775184-9.5454 21.322631-21.320585 21.322631L146.273435 298.00851c-11.775184 0-21.320585-9.547447-21.320585-21.322631L124.95285 20.84500300000002c0-11.775184 9.5454-21.322631 21.320585-21.322631l255.842922 0c11.775184 0 21.320585 9.547447 21.320585 21.322631L423.436942 276.685879zM423.436942 425.927925L124.95285 425.927925c-23.550369 0-42.640146 19.091824-42.640146 42.642193L82.312704 767.053186c0 23.550369 19.089777 42.643216 42.640146 42.643216l298.484092 0c23.548322 0 42.640146-19.091824 42.640146-42.643216l0-298.482045C466.078111 445.020772 446.985264 425.927925 423.436942 425.927925zM423.436942 745.734648c0 11.775184-9.5454 21.318538-21.320585 21.318538L146.273435 767.053186c-11.775184 0-21.320585-9.543354-21.320585-21.318538l0-255.845992c0-11.775184 9.5454-21.318538 21.320585-21.318538l255.842922 0c11.775184 0 21.320585 9.543354 21.320585 21.318538L423.436942 745.734648z"  horiz-adv-x="1024" />

    
    <glyph glyph-name="jiantou2" unicode="&#58885;" d="M505.015 144.27499999999998l419.975 430.914-47.561 48.761-372.385-382.101-372.384 382.071-47.562-48.727z"  horiz-adv-x="1024" />

    
    <glyph glyph-name="bi1" unicode="&#59236;" d="M946.583 817.478c-26.797 26.843-62.405 41.58-100.284 41.58-37.903 0-73.509-14.738-100.307-41.58l-607.814-608.654c-2.476-2.476-4.337-5.451-5.518-8.743l-95.357-262.565c-3.135-8.721-0.999-18.463 5.541-25.004 4.518-4.542 10.628-6.973 16.874-6.973 2.725 0 5.474 0.478 8.153 1.431l262.18 95.47c3.293 1.204 6.245 3.11 8.742 5.541l607.792 608.654c26.796 26.843 41.535 62.496 41.535 100.444 0 37.97-14.739 73.623-41.535 100.443v-0.045zM308.791 45.452l-209.22-76.189 76.077 209.538 527.629 528.354 133.143-133.326-527.629-528.379zM912.838 650.407l-42.717-42.784-133.143 133.326 42.716 42.784c17.781 17.804 41.422 27.591 66.539 27.591 25.139 0 48.779-9.787 66.561-27.591 17.781-17.804 27.546-41.49 27.546-66.651 0-25.163-9.764-48.826-27.546-66.629l0.046-0.046z"  horiz-adv-x="1024" />

    
    <glyph glyph-name="dui1" unicode="&#59341;" d="M1017.68192 677.72928c0 22.912-18.56512 41.47712-41.46688 41.47712-14.22848 0-26.7776-7.17312-34.2528-18.09408L382.88896 144.22528 81.7408 441.16992c-7.5008 10.69568-19.90144 17.69984-33.95584 17.69984-22.90688 0-41.46688-18.56-41.46688-41.46688 0-13.19936 6.18496-24.92928 15.80032-32.53248l322.90816-318.40256 0.65024 0.6656c8.64256-11.14112 22.11328-18.33984 37.30432-18.33984 14.16192 0 26.82368 6.26176 35.4816 16.13312l0.46592-0.46592L1002.19392 645.43744C1011.6352 653.0406399999999 1017.68192 664.67328 1017.68192 677.72928z"  horiz-adv-x="1024" />

    
    <glyph glyph-name="qita1" unicode="&#59195;" d="M426.0864 818.176L144.0768 818.176c-32.4608 0-58.7776-26.4192-58.7776-58.7776l0-281.9072c0-32.4608 26.4192-58.7776 58.7776-58.7776l281.9072 0c32.4608 0 58.7776 26.4192 58.7776 58.7776L484.7616 759.3984C484.864 791.8592 458.4448 818.176 426.0864 818.176zM437.76 477.4912c0-6.4512-5.2224-11.6736-11.6736-11.6736L144.0768 465.8176c-6.4512 0-11.6736 5.2224-11.6736 11.6736L132.4032 759.3984c0 6.4512 5.2224 11.6736 11.6736 11.6736l281.9072 0c6.4512 0 11.6736-5.2224 11.6736-11.6736L437.6576 477.4912zM892.7232 818.176L610.816 818.176c-32.4608 0-58.7776-26.4192-58.7776-58.7776l0-281.9072c0-32.4608 26.4192-58.7776 58.7776-58.7776l281.9072 0c32.4608 0 58.7776 26.4192 58.7776 58.7776L951.5008 759.3984C951.5008 791.8592 925.184 818.176 892.7232 818.176zM892.7232 465.8176L610.816 465.8176c-6.4512 0-11.6736 5.2224-11.6736 11.6736L599.1424 759.3984c0 6.4512 5.2224 11.6736 11.6736 11.6736l281.9072 0c6.4512 0 11.6736-5.2224 11.6736-11.6736l0-281.9072C904.3968 471.04 899.1744 465.8176 892.7232 465.8176zM426.0864 358.80960000000005L144.0768 358.80960000000005c-32.4608 0-58.7776-26.4192-58.7776-58.7776l0-281.9072c0-32.4608 26.4192-58.7776 58.7776-58.7776l281.9072 0c32.4608 0 58.7776 26.4192 58.7776 58.7776L484.7616 300.03200000000004C484.864 332.4928 458.4448 358.80960000000005 426.0864 358.80960000000005zM437.76 18.12480000000005c0-6.4512-5.2224-11.6736-11.6736-11.6736L144.0768 6.451199999999972c-6.4512 0-11.6736 5.2224-11.6736 11.6736L132.4032 300.03200000000004c0 6.4512 5.2224 11.6736 11.6736 11.6736l281.9072 0c6.4512 0 11.6736-5.2224 11.6736-11.6736L437.6576 18.12480000000005zM892.7232 358.80960000000005L610.816 358.80960000000005c-32.4608 0-58.7776-26.4192-58.7776-58.7776l0-281.9072c0-32.4608 26.4192-58.7776 58.7776-58.7776l281.9072 0c32.4608 0 58.7776 26.4192 58.7776 58.7776L951.5008 300.03200000000004C951.5008 332.4928 925.184 358.80960000000005 892.7232 358.80960000000005zM892.7232 6.451199999999972L610.816 6.451199999999972c-6.4512 0-11.6736 5.2224-11.6736 11.6736L599.1424 300.03200000000004c0 6.4512 5.2224 11.6736 11.6736 11.6736l281.9072 0c6.4512 0 11.6736-5.2224 11.6736-11.6736l0-281.9072C904.3968 11.673599999999965 899.1744 6.451199999999972 892.7232 6.451199999999972z"  horiz-adv-x="1024" />

    
    <glyph glyph-name="jian" unicode="&#58883;" d="M680.752 355.874c15.553 0 28.125 12.572 28.125 28.125 0 15.525-12.572 28.125-28.125 28.125L343.251 412.124c-15.525 0-28.125-12.6-28.125-28.125 0-15.553 12.6-28.125 28.125-28.125L680.752 355.874zM849.502 834L174.5 834C112.372 834 62 783.628 62 721.5l0-675.002c0-62.128 50.372-112.5 112.5-112.5l675.002 0c62.128 0 112.5 50.372 112.5 112.5L962.002 721.5C962.002 783.628 911.63 834 849.502 834zM905.752 46.49800000000005c0-31.05-25.2-56.25-56.25-56.25L174.5-9.751999999999953c-31.05 0-56.25 25.2-56.25 56.25L118.25 721.5c0 31.05 25.2 56.25 56.25 56.25l675.002 0c31.05 0 56.25-25.2 56.25-56.25L905.752 46.49800000000005z"  horiz-adv-x="1024" />

    
    <glyph glyph-name="plus-company" unicode="&#59200;" d="M880.96 550.336l142.912 0-518.72 307.136-505.152-307.136 129.344 0 0-536.896-71.552 0 0-102.976 71.552 0 178.944 0 107.328 0 179.072 0 107.328 0 178.944 0 71.68 0 0 102.976-71.68 0L880.96 550.336 880.96 550.336zM415.68 13.504000000000019l-153.408 0 0 536.896 153.408 0L415.68 13.504000000000019 415.68 13.504000000000019zM745.664 13.504000000000019l-150.912 0 0 536.896 150.912 0L745.664 13.504000000000019 745.664 13.504000000000019zM745.664 13.504000000000019"  horiz-adv-x="1025" />

    
    <glyph glyph-name="gerenshezhi" unicode="&#58935;" d="M512 153.08799999999997c-127.488 0-230.912 103.424-230.912 230.912 0 127.5904 103.424 230.912 230.912 230.912 127.5904 0 230.912-103.424 230.912-230.912S639.5904 153.08799999999997 512 153.08799999999997m460.5952 340.5824h-90.0096c-8.4992 18.3296-20.48 56.32-35.9424 83.456l63.5904 61.7472c20.0704 20.0704 20.0704 51.6096 0 71.68L837.632 782.6432c-20.0704 20.0704-52.5312 19.8656-72.6016-0.2048L705.1264 718.848c-27.0336 15.36-65.1264 27.3408-83.3536 35.84V844.6976c0 28.3648-30.1056 51.3024-58.368 51.3024H460.6976c-28.3648 0-58.368-22.9376-58.368-51.3024V754.688c-18.3296-8.4992-56.32-20.48-83.456-35.9424L257.1264 782.336c-20.0704 20.0704-51.712 20.0704-71.68 0l-72.0896-72.6016c-20.0704-20.0704-19.8656-52.5312 0.2048-72.6016l63.6928-60.0064c-15.36-27.136-27.3408-65.1264-35.84-83.3536H51.4048c-28.3648 0-51.4048-30.1056-51.4048-58.368V332.79999999999995c0-28.3648 22.9376-58.368 51.4048-58.368h90.0096c8.4992-18.3296 20.5824-56.32 35.9424-83.3536L113.664 129.024c-20.0704-20.0704-20.0704-51.6096 0-71.68l72.6016-72.192c20.0704-20.0704 52.5312-19.8656 72.6016 0.3072l60.0064 63.6928c27.136-15.36 65.1264-27.3408 83.3536-35.84v-90.0096c0-28.3648 30.1056-51.3024 58.368-51.3024H563.2c28.3648 0 58.368 22.9376 58.368 51.4048v90.0096c18.3296 8.4992 56.32 20.5824 83.456 35.9424l61.8496-63.5904c20.0704-20.0704 51.6096-20.0704 71.68 0l72.192 72.6016c20.0704 20.0704 19.8656 52.5312-0.2048 72.6016L846.848 190.8736c15.36 27.136 27.3408 65.1264 35.84 83.3536h90.0096c28.3648 0 51.3024 30.1056 51.3024 58.368V435.3024c0 28.3648-22.9376 58.368-51.4048 58.368"  horiz-adv-x="1024" />

    
    <glyph glyph-name="tuichuxitong" unicode="&#58933;" d="M998.514 416.1L833.32 617.7239999999999c-7.986 9.755-19.94 15.14-32.251 15.14-4.56 0-9.188-0.752-13.657-2.287-16.56-5.672-27.616-20.91-27.616-38.04v-120.964h-330.39c-45.596 0-82.593-36.123-82.593-80.662 0-44.535 36.997-80.63 82.594-80.63h330.39v-120.993c0-17.104 11.056-32.368 27.616-38.034a41.967 41.967 0 0 1 13.657-2.272c12.311 0 24.264 5.363 32.252 15.122l165.192 201.627c12.048 14.715 12.048 35.648 0 50.369z m-403.91-347.778H264.24v0.025c-0.223 0-0.438-0.025-0.66-0.025-45.255 0-81.947 36.102-81.947 80.66V632.8430000000001h0.013c0 0.24-0.013 0.45-0.013 0.64 0 44.203 36.987 80.018 82.612 80.018h330.36c45.597 0 82.594 36.1 82.594 80.66 0 44.535-36.997 80.636-82.593 80.636H181.632c-91.223 0-165.182-72.223-165.182-161.291V68.32000000000005c0-89.067 73.959-161.291 165.182-161.291h412.973c45.596 0 82.593 36.123 82.593 80.66s-36.997 80.632-82.593 80.632z m0 0"  horiz-adv-x="1024" />

    
    <glyph glyph-name="shijian" unicode="&#58884;" d="M511.488 849.92C254.464 849.92 45.056 641.024 45.056 384s208.896-465.92 466.432-465.92c257.024 0 465.92 208.896 465.92 465.92S768.512 849.92 511.488 849.92z m0-829.44c-200.192 0-363.52 162.816-363.52 363.008s162.816 363.008 363.52 363.008c200.192 0 363.008-162.816 363.008-363.008S711.68 20.480000000000018 511.488 20.480000000000018zM716.288 410.624H540.672V606.72c0 23.04-18.944 42.496-42.496 42.496-23.04 0-42.496-18.944-42.496-42.496v-238.592c0-23.04 18.944-42.496 42.496-42.496h218.112c24.064 0 42.496 18.944 42.496 42.496 0.512 23.552-18.432 42.496-42.496 42.496z"  horiz-adv-x="1024" />

    
    <glyph glyph-name="xitong" unicode="&#58930;" d="M539.984866 735.125009c14.801101 0 26.992771-12.198833 26.992771-27.028586v-32.419364c0-14.868639 11.651364-30.641881 25.793456-35.025725l45.155433-18.603706c4.860704-2.606361 10.577916-3.851725 16.385179-3.851725 9.848299 0 19.943215 3.583618 26.51898 10.190083l22.991643 22.978341c5.269004 5.249561 12.19474 7.875365 19.11843 7.875364 6.92062 0 13.842263-2.62478 19.09694-7.875364l38.214347-38.187741c10.539031-10.505261 10.539031-27.704992 0-38.244022l-22.989597-22.960945c-10.453073-10.515494-13.340843-29.815049-6.315846-42.904159l18.593474-45.23218c4.427846-14.190187 20.165272-25.801642 35.017538-25.801643h32.417317c14.82566 0 26.964118-12.138458 26.964118-27.019377v-54.060243c0-14.868639-12.137435-27.016307-26.964118-27.016307H804.557614c-14.790868 0-30.589692-11.607362-35.017538-25.771966l-18.593474-45.232181c-7.024997-13.112646-4.137227-32.472576 6.315846-42.934858l22.989597-22.955828c10.539031-10.528797 10.539031-27.714202 0-38.250162l-38.214347-38.212301c-5.254677-5.250584-12.17632-7.875365-19.09694-7.875364-6.92369 0-13.848403 2.622734-19.11843 7.875364l-22.881126 23.002901c-6.599302 6.571672-16.668635 10.148128-26.491351 10.148127-5.825682 0-11.565407-1.258667-16.439414-3.897773l-45.236274-18.596544c-14.144138-4.414543-25.793456-20.161179-25.793456-35.033911v-32.327266c0-14.82873-12.193717-27.001981-26.992771-27.001981h-53.980425c-14.907525 0-27.050076 12.173251-27.050076 27.001981V92.20014400000002c0 14.873756-11.5695 30.619368-25.758664 35.033911l-45.299719 18.59859c-4.862751 2.64013-10.583033 3.898797-16.393365 3.898797-9.794064 0-19.832697-3.577478-26.397207-10.153244L322.089208 116.57632100000001c-5.255701-5.249561-12.172227-7.871271-19.086708-7.871271-6.91448 0-13.82896 2.622734-19.070334 7.871271l-38.246069 38.21537c-10.454096 10.533914-10.454096 27.719318 0 38.248116l22.992667 22.955828c10.510378 10.465352 13.33675 29.823236 6.343475 42.936905l-18.651802 45.230134c-4.373611 14.162558-20.082384 25.774013-34.958187 25.795502h-32.388664c-14.856359 0-27.02347 12.178367-27.02347 27.05417v53.999868c0 14.879895 12.168134 27.0204 27.02347 27.0204l32.388664-0.030699c14.877849 0 30.618345 11.618619 35.011399 25.804712l18.599613 45.257763c7.051603 13.094226 4.193509 32.390711-6.343475 42.907229l-22.932292 22.985504c-10.514471 10.514471-10.514471 27.712155 0 38.219463l38.182624 38.187741c5.243421 5.248537 12.155854 7.875365 19.072381 7.875364 6.915503 0 13.833053-2.625804 19.086708-7.875364l23.048948-22.978341c6.593162-6.617721 16.650215-10.1952 26.467815-10.195199 5.79703 0 11.510148 1.245364 16.379039 3.857864l45.213761 18.60166c14.190187 4.383844 25.75764 20.158109 25.757641 35.026748V708.097446c0 14.82873 12.173251 27.028587 27.050076 27.028587l53.978378-0.001024z m-26.935465-505.478469c85.246523 0 154.348344 69.087495 154.348343 154.395416 0 85.266989-69.103868 154.400532-154.348343 154.400532-85.265966 0-154.367787-69.133543-154.367787-154.400532 0-85.307921 69.102844-154.395416 154.367787-154.395416z m26.307155 565.899584h-52.721758c-52.396347 0-95.02626-42.618657-95.026261-95.003748v-9.565866l-9.829879-4.045129-6.809079 6.788613c-17.856693 17.84646-41.699728 27.710109-67.078745 27.710108-25.40153 0-49.259914-9.882068-67.174935-27.823695l-37.256532-37.263695c-17.912975-17.898649-27.792996-41.762149-27.792997-67.167773 0-25.396413 9.871835-49.254797 27.798113-67.179028l6.687306-6.704702-4.075829-9.920954-9.439999 0.008186c-52.445466 0-95.061053-42.614563-95.061053-94.994537v-52.740178c0-52.396347 42.614563-95.02626 94.996585-95.026261h9.469675l4.084015-9.906627-6.683213-6.674003c-36.894282-37.151132-36.898375-97.270371-0.217964-134.228097l37.549198-37.527709c17.869996-17.887392 41.723264-27.765367 67.121723-27.765367 25.368784 0 49.211818 9.858532 67.128887 27.759228l6.688329 6.683212 9.899464-4.064572v-9.464559c0-52.370765 42.627866-94.976118 95.024214-94.976118h52.723805c52.364625 0 94.965885 42.606377 94.965885 94.976118v9.461489l9.910721 4.072759 6.500041-6.535857c18.151405-18.078751 41.977044-27.912723 67.312058-27.912723 25.368784 0 49.209772 9.853415 67.128887 27.750018l37.358863 37.360909c17.931395 17.922185 27.813462 41.789779 27.813462 67.190285 0 25.40767-9.886161 49.275263-27.838022 67.207681l-6.691399 6.681166 4.064572 9.885138h9.54233c52.351322 0 94.939279 42.61661 94.93928 94.992491V410.386974c0 52.380998-42.587957 94.994538-94.93928 94.994537h-9.531073l-4.067643 9.894348 6.67298 6.665817c17.993816 17.996886 27.868721 41.886993 27.849278 67.311035-0.021489 25.409716-9.924024 49.264007-27.88714 67.170842l-37.266765 37.240159c-17.928325 17.910928-41.773406 27.771507-67.146283 27.771507-25.343201 0-49.172933-9.839089-67.099211-27.701922l-6.795776-6.79373-9.827833 4.049223v9.559726c-0.00307 52.378951-42.605354 94.997608-94.971002 94.997608m-26.305109-503.325434c-50.610678 0-91.786473 41.191144-91.786473 91.820242 0 50.633191 41.174772 91.831498 91.786473 91.831498 50.598398 0 91.76396-41.198308 91.76396-91.831498 0-50.629097-41.165562-91.820242-91.76396-91.820242"  horiz-adv-x="1024" />

    
    <glyph glyph-name="xiugai" unicode="&#58945;" d="M169.57 95.98000000000002l-1.584-5.068 213.639 70.104 432.906 432.588c14.1 14.061 21.863 32.717 21.863 52.6 0 19.902-7.764 38.615-21.863 52.598l-38.895 38.756c-13.229 13.465-32.318 21.129-52.439 21.129-20.041 0-39.211-7.664-52.598-21.129L238.723 305.701 169.57 95.98000000000002z m504.118 588.918l5.467 5.426c18.299 18.26 32.479 29.508 46.895 29.508 7.684 0 15.131-3.367 21.941-10.18l38.658-38.775c6.732-6.732 10.219-14.061 10.219-21.822 0-14.418-11.408-28.598-29.627-46.836l-5.387-5.406-88.166 88.085zM272.072 283.322l373.732 373.652 88.166-88.105-373.654-373.633-88.244 88.086z m-48.398-137.238l33.27 100.285 68.52-67.529-101.79-32.756z"  horiz-adv-x="1024" />

    
    <glyph glyph-name="shangla1" unicode="&#58931;" d="M9.938227 105.10335999999995L448.455987 719.93344c30.4896 42.75712 96.61952 42.75712 127.11424 0l438.49728-614.83008c28.24192-39.59808-7.07072-89.10336-63.54944-89.10336H73.492787c-56.4992 0-91.79136 49.50528-63.55456 89.10336z"  horiz-adv-x="1024" />

    
    <glyph glyph-name="zuzhijigouguanli" unicode="&#58982;" d="M758.995 534.177V-10.970000000000027h-49.56V831.532H312.962v-842.504h-49.56v545.15H65.169V-60.52999999999997H957.23V534.177H758.995zM213.844 137.70500000000004h-99.118v49.56h99.118v-49.56z m0 148.677h-99.118V335.94000000000005h99.118v-49.558z m0 148.677h-99.118v49.559h99.118v-49.56z m396.474-446.03H412.08V236.82100000000003h198.237v-247.794z m0 396.471H412.08V435.06h198.237V385.5z m0 148.677H412.08v49.56h198.237v-49.56z m0 148.679H412.08v49.558h198.237v-49.558zM907.67 137.70500000000004h-99.117v49.56h99.117v-49.56z m0 148.677h-99.117V335.94000000000005h99.117v-49.558z m0 148.677h-99.117v49.559h99.117v-49.56z"  horiz-adv-x="1024" />

    
    <glyph glyph-name="xiangxixinxi" unicode="&#58887;" d="M511.248 832.788c-247.184 0-447.55-200.365-447.55-447.55 0-247.152 200.366-447.552 447.55-447.552 247.151 0 447.552 200.4 447.552 447.552 0 247.185-200.4 447.55-447.552 447.55z m262.016-709.564c-34.05-34.05-73.691-60.804-117.826-79.446-45.636-19.289-94.142-29.108-144.19-29.108-50.068 0-98.58 9.82-144.212 29.108-44.114 18.642-83.755 45.395-117.803 79.446-34.047 34.05-60.79 73.69-79.44 117.823-19.29 45.637-29.08 94.141-29.08 144.191 0 50.069 9.79 98.58 29.08 144.212 18.653 44.113 45.393 83.753 79.44 117.803 34.052 34.06 73.692 60.78 117.803 79.44 45.628 19.304 94.144 29.08 144.212 29.08 50.048 0 98.555-9.776 144.19-29.08 44.135-18.662 83.774-45.384 117.826-79.44 34.047-34.053 60.802-73.693 79.443-117.803 19.293-45.629 29.108-94.144 29.108-144.212 0-50.05-9.816-98.59-29.108-144.19-18.641-44.134-45.395-83.774-79.443-117.824z m-443.752 319.52c-15.072 0-30.046-6.207-40.686-16.84C278.186 415.252 272 400.28 272 385.236c0-15.047 6.181-30.006 16.826-40.658 10.64-10.653 25.614-16.85 40.686-16.85 15.043 0 30.007 6.2 40.638 16.85 10.663 10.652 16.84 25.613 16.84 40.658 0 15.043-6.18 30.016-16.84 40.666-10.631 10.634-25.595 16.842-40.638 16.842z m181.736 0c-15.032 0-30.003-6.207-40.667-16.84-10.632-10.651-16.841-25.624-16.841-40.667 0-15.047 6.209-30.006 16.841-40.658 10.663-10.653 25.635-16.85 40.667-16.85 15.046 0 30.008 6.2 40.657 16.85 10.654 10.652 16.852 25.613 16.852 40.658 0 15.043-6.2 30.016-16.852 40.666-10.648 10.634-25.61 16.842-40.657 16.842z m181.76 0c-15.064 0-30.028-6.207-40.658-16.84-10.631-10.651-16.873-25.624-16.873-40.667 0-15.047 6.243-30.006 16.873-40.658 10.631-10.653 25.59-16.85 40.658-16.85 15.078 0 30.003 6.2 40.655 16.85 10.654 10.652 16.831 25.613 16.831 40.658 0 15.043-6.18 30.016-16.831 40.666-10.652 10.634-25.577 16.842-40.655 16.842z"  horiz-adv-x="1024" />

    
    <glyph glyph-name="jianshao" unicode="&#58888;" d="M153.483 332.19500000000005h717.034v103.61h-717.034z"  horiz-adv-x="1024" />

    
    <glyph glyph-name="geren" unicode="&#58889;" d="M237.655-27.821000000000026h540.559c41.992 0 104.216 18.264 104.216 90.342 0 121.199-272.873 86.797-272.873 211.48 0 77.028 120.652 148.02 120.652 326.715 0 150.89-98.912 237.566-222.287 237.566-123.373 0-222.286-86.677-222.286-237.566 0-178.695 120.652-249.687 120.652-326.714 0-124.684-272.874-90.283-272.874-211.48 0.002-101.819 104.241-90.343 104.241-90.343z"  horiz-adv-x="1024" />

    
    <glyph glyph-name="dui11" unicode="&#58934;" d="M1222.549 913.122l-666.773-667.75-318.255 318.255-117.148-117.148 318.255-318.255-3.907-1.952 117.148-117.148 3.907 1.952 117.148 117.148 666.773 667.75-117.148 117.148z"  horiz-adv-x="1487" />

    
    <glyph glyph-name="yonghu1" unicode="&#58937;" d="M674.133333 343.46666700000003c72.533333 51.2 119.466667 134.4 119.466667 228.266666 0 155.733333-125.866667 281.6-281.6 281.6-155.733333 0-281.6-125.866667-281.6-281.6 0-93.866667 46.933333-179.2 119.466667-228.266666-149.333333-64-256-213.333333-256-386.133334 0-23.466667 19.2-42.666667 42.666666-42.666666s42.666667 19.2 42.666667 42.666666c0 183.466667 149.333333 332.8 332.8 332.8s332.8-149.333333 332.8-332.8c0-23.466667 19.2-42.666667 42.666667-42.666666s42.666667 19.2 42.666666 42.666666c0 172.8-104.533333 322.133333-256 386.133334z m-358.4 228.266666c0 108.8 87.466667 196.266667 196.266667 196.266667s196.266667-87.466667 196.266667-196.266667-87.466667-196.266667-196.266667-196.266666-196.266667 87.466667-196.266667 196.266666z"  horiz-adv-x="1024" />

    
    <glyph glyph-name="jiantou" unicode="&#58890;" d="M490.982 519.7629999999999c-12.499 12.499-12.499 32.755 0 45.253v0c12.499 12.499 32.755 12.499 45.253 0l316.781-316.781c12.499-12.499 12.499-32.755 0-45.253v0c-12.499-12.499-32.755-12.499-45.253 0l-316.781 316.781zM216.237 202.98199999999997c-12.499-12.499-32.755-12.499-45.253 0v0c-12.499 12.499-12.499 32.755 0 45.253l316.781 316.781c12.499 12.499 32.755 12.499 45.253 0v0c12.499-12.499 12.499-32.755 0-45.253l-316.781-316.781z"  horiz-adv-x="1024" />

    
    <glyph glyph-name="yonghuguanli" unicode="&#58925;" d="M716.687334 270.397662a429.578826 429.578826 0 0 1-74.801637 37.245276c82.895989 53.150524 136.945999 146.9437 136.945999 254.17084 0 165.912727-128.942721 300.415071-294.857495 300.415071-165.874865 0-294.812469-134.502343-294.812469-300.415071 0-107.228163 54.114478-201.083761 137.03605-254.232238C183.759699 253.166209 79.13278 126.934227 59.02993-29.243789c-0.734734-2.992147-1.231037-6.068206-1.231038-9.322319-0.13303-1.107217-0.36839-2.177596-0.469697-3.313466h0.731664l0.034792-0.363273c0-21.670555 17.602913-39.243793 39.210024-39.243793 21.638833 0 39.179324 17.573237 39.179324 39.243793l-0.364297 3.592828c0 3.575432-0.597611 6.939039-1.500167 10.17064 26.5067 166.480662 170.383552 288.211121 345.19802 290.188148 1.431605-0.079818 2.734274-0.2415 4.16588-0.2415 1.434675 0 2.737344 0.161682 4.167926 0.2415 58.630329-0.660032 113.734344-14.84101 162.144913-39.593763 19.047822 19.717064 41.466414 36.145222 66.39006 48.282656z m-232.766344 64.294329c-125.436874 0-227.098251 101.663424-227.098252 227.065505 0 125.433804 101.662401 227.129974 227.098252 227.129974 125.395942 0 227.053226-101.69617 227.053225-227.129974 0.001023-125.404128-101.661378-227.065506-227.053225-227.065505zM935.20107 60.419324c0.725524 5.668093 1.2689 11.326976 1.268899 17.3389 0 6.01704-0.543376 11.675924-1.268899 17.35425l38.169321 29.203112c3.441379 2.645247 4.341888 7.437389 2.167362 11.320837l-36.186153 61.246922c-2.160199 3.89675-7.04751 5.308913-11.030218 3.89675l-45.038776-17.695011c-9.411347 7.061836-19.537985 12.910031-30.568202 17.335831l-6.880711 46.916542c-0.542352 4.234441-4.327562 7.426133-8.864902 7.426133h-72.344678c-4.52199 0-8.325619-3.191692-8.877181-7.426133l-6.868432-46.916542c-11.032264-4.425799-21.165042-10.440793-30.566156-17.335831l-45.043892 17.695011c-4.158716 1.589195-8.862855 0-11.030218-3.89675l-36.180013-61.246922c-2.347464-3.8814-1.276063-8.674567 2.168385-11.320837l38.163182-29.203112c-0.725524-5.678326-1.2689-11.496845-1.2689-17.35425 0-5.835915 0.545422-11.670807 1.2689-17.3389l-38.163182-29.206183c-3.444449-2.659573-4.339842-7.42818-2.168385-11.324929l36.180013-61.237713c2.167363-3.895727 7.05672-5.313006 11.030218-3.895727l45.043892 17.704221c9.402137-7.082302 19.527752-12.925381 30.566156-17.347087l6.868432-46.905286c0.551562-4.251837 4.352121-7.436366 8.877181-7.436366h72.344678c4.536316 0 8.317433 3.182482 8.864902 7.436366l6.880711 46.905286c11.039427 4.421706 21.162995 10.444886 30.568202 17.347087l45.038776-17.704221c4.160763-1.595334 8.851599 0 11.030218 3.895727l36.186153 61.237713c2.171456 3.8814 1.274016 8.667404-2.167362 11.324929l-38.169321 29.206183z m-134.411269-44.598754c-34.900881 0-63.305815 27.79709-63.305815 61.946864 0 34.151821 28.404933 61.95505 63.305815 61.95505 34.925441 0 63.321164-27.803229 63.321164-61.95505 0-34.157961-28.395724-61.946864-63.321164-61.946864z"  horiz-adv-x="1024" />

    
    <glyph glyph-name="jiaose" unicode="&#58905;" d="M506.41 275.758c0-18.472-5.462-33.841-16.384-46.108-10.922-12.267-24.353-18.4-40.293-18.4H223.028c-15.94 0-29.37 6.133-40.293 18.4-10.922 12.267-16.383 27.636-16.383 46.108 0 18.473 1.329 35.43 3.985 50.871 2.657 15.442 7.011 30.306 13.062 44.593 6.052 14.287 14.981 25.544 26.789 33.77 11.807 8.226 26.124 12.339 42.95 12.339 1.77-1.155 6.199-3.752 13.283-7.793 7.085-4.041 12.62-7.144 16.604-9.309 3.985-2.164 9.225-4.69 15.72-7.576 6.493-2.886 12.84-4.979 19.039-6.278a90.463 90.463 0 0 1 18.597-1.948c6.199 0 12.398 0.65 18.597 1.948 6.199 1.3 12.545 3.392 19.04 6.278 6.493 2.886 11.733 5.412 15.718 7.576 3.985 2.165 9.52 5.268 16.604 9.309 7.085 4.04 11.513 6.638 13.284 7.793 16.825 0 31.142-4.113 42.95-12.34 11.807-8.225 20.737-19.482 26.788-33.769 6.051-14.287 10.405-29.151 13.062-44.593 2.657-15.441 3.985-32.398 3.985-50.87z m-69.518 225.13c0-27.13-9.815-50.293-29.445-69.487-19.63-19.193-43.319-28.79-71.066-28.79-27.748 0-51.437 9.597-71.067 28.79-19.63 19.194-29.445 42.357-29.445 69.488 0 27.13 9.815 50.293 29.445 69.487 19.63 19.194 43.319 28.79 71.067 28.79 27.747 0 51.436-9.596 71.066-28.79 19.63-19.194 29.445-42.356 29.445-69.487zM846.466 308.23v-27.708c0-4.041-1.328-7.36-3.985-9.958s-6.051-3.896-10.184-3.896H577.254c-4.132 0-7.527 1.298-10.184 3.896-2.656 2.598-3.985 5.917-3.985 9.958v27.708c0 4.041 1.329 7.36 3.985 9.958 2.657 2.597 6.052 3.896 10.184 3.896h255.043c4.133 0 7.527-1.298 10.184-3.896 2.657-2.598 3.985-5.917 3.985-9.958z m0 109.102v-24.245c0-4.33-1.55-8.01-4.65-11.04-3.099-3.03-6.862-4.546-11.29-4.546h-251.5c-4.428 0-8.192 1.515-11.292 4.546-3.099 3.03-4.649 6.71-4.649 11.04V417.33c0 4.33 1.55 8.01 4.65 11.04 3.099 3.03 6.863 4.546 11.29 4.546h251.5c4.429 0 8.192-1.516 11.292-4.546 3.1-3.03 4.649-6.71 4.649-11.04z m0 112.565v-27.708c0-4.041-1.328-7.36-3.985-9.958s-6.051-3.897-10.184-3.897H577.254c-4.132 0-7.527 1.3-10.184 3.897-2.656 2.597-3.985 5.917-3.985 9.958v27.708c0 4.04 1.329 7.36 3.985 9.958 2.657 2.597 6.052 3.896 10.184 3.896h255.043c4.133 0 7.527-1.299 10.184-3.896 2.657-2.598 3.985-5.917 3.985-9.958z m56.676-415.625V640.729c0 3.752-1.402 7-4.206 9.741-2.805 2.742-6.126 4.113-9.963 4.113H123.845c-3.837 0-7.158-1.37-9.962-4.113-2.805-2.742-4.207-5.989-4.207-9.74v-526.46c0-3.751 1.402-6.998 4.207-9.74 2.804-2.742 6.125-4.113 9.962-4.113h155.86v41.562c0 4.041 1.328 7.36 3.985 9.958 2.656 2.598 6.051 3.896 10.184 3.896h28.338c4.132 0 7.527-1.298 10.184-3.896 2.656-2.598 3.985-5.917 3.985-9.958v-41.562h340.057v41.562c0 4.041 1.328 7.36 3.985 9.958 2.656 2.598 6.05 3.896 10.184 3.896h28.338c4.132 0 7.527-1.298 10.184-3.896 2.656-2.598 3.985-5.917 3.985-9.958v-41.562h155.859c3.837 0 7.158 1.37 9.963 4.113 2.804 2.742 4.206 5.989 4.206 9.74z m56.676 526.458v-526.458c0-19.05-6.937-35.357-20.81-48.923C925.133 51.783 908.454 45 888.972 45H123.845c-19.482 0-36.16 6.783-50.034 20.348C59.937 78.914 53 95.221 53 114.271V640.729c0 19.05 6.937 35.357 20.81 48.923C87.686 703.217 104.364 710 123.846 710h765.128c19.482 0 36.16-6.783 50.034-20.348 13.874-13.566 20.811-29.873 20.811-48.923z"  horiz-adv-x="1024" />

    
    <glyph glyph-name="xiala" unicode="&#58917;" d="M910.222222 713.955556c119.466667 0 147.911111-73.955556 73.955556-159.288889l-381.155556-455.111111c-51.2-56.888889-130.844444-56.888889-182.044444 0L39.822222 548.977778C-34.133333 640 0 713.955556 113.777778 713.955556h796.444444z"  horiz-adv-x="1024" />

    
    <glyph glyph-name="pengyou" unicode="&#58895;" d="M984.615385 34.78974400000004v5.251282c-2.625641 139.158974-86.646154 257.312821-204.8 315.076923v5.251282c55.138462 44.635897 89.271795 110.276923 89.271794 183.794872 0 126.030769-97.148718 228.430769-220.553846 236.307692l-2.625641-2.625641c-21.005128 0-36.758974-18.379487-36.758974-36.758975V738.461538c0-21.005128 15.753846-36.758974 36.758974-36.758974 5.251282 0 10.502564 2.625641 15.753846 2.625641 2.625641-2.625641 2.625641-5.251282 5.251283-7.876923 68.266667-18.379487 118.153846-78.769231 118.153846-152.287179 0-57.764103-31.507692-107.651282-78.769231-136.533334l-2.625641-2.625641c-15.753846-5.251282-28.882051-18.379487-34.133333-34.133333l-5.251283-5.251282 2.625642-2.625641V347.24102600000003c0-31.507692 23.630769-55.138462 55.138461-55.138462 5.251282 0 7.876923 0 13.128205 2.625641 2.625641-5.251282 7.876923-10.502564 10.502564-13.128205 91.897436-44.635897 154.912821-136.533333 157.538462-244.184615v-5.251282c0-21.005128 18.379487-39.384615 39.384615-39.384616s39.384615 18.379487 39.384616 39.384616l2.625641 2.625641z m-236.307693 5.251282c-2.625641 141.784615-86.646154 259.938462-210.051282 315.076923 55.138462 44.635897 91.897436 110.276923 91.897436 186.420513 0 131.282051-105.025641 236.307692-236.307692 236.307692s-236.307692-105.025641-236.307692-236.307692c0-76.14359 36.758974-144.410256 91.897435-186.420513-120.779487-55.138462-204.8-173.292308-210.051282-312.451282v-13.128205c0-21.005128 18.379487-39.384615 39.384616-39.384616s39.384615 18.379487 39.384615 39.384616c0 144.410256 112.902564 265.189744 254.68718 275.692307H420.102564c139.158974-10.502564 252.061538-126.030769 254.68718-270.441025v-5.251282c0-21.005128 18.379487-39.384615 39.384615-39.384616s39.384615 18.379487 39.384615 39.384616v2.625641c-5.251282 5.251282-5.251282 5.251282-5.251282 7.876923zM393.846154 386.625641c-86.646154 0-157.538462 70.892308-157.538462 157.538462s70.892308 157.538462 157.538462 157.538461 157.538462-70.892308 157.538461-157.538461-70.892308-157.538462-157.538461-157.538462z"  horiz-adv-x="1024" />

    
    <glyph glyph-name="chakan" unicode="&#59181;" d="M1011.154-115.377c-8.139-8.144-18.955-12.623-30.457-12.623-11.507 0-22.323 4.479-30.457 12.618L813.826 21.094c-45.045-35.11-100.41-54.233-158.006-54.233-68.745 0-133.375 26.781-181.988 75.415-48.608 48.633-75.379 113.299-75.379 182.075 0 68.781 26.766 133.441 75.379 182.075 48.608 48.639 113.237 75.42 181.988 75.42 68.745 0 133.375-26.781 181.988-75.42 48.608-48.633 75.379-113.294 75.379-182.075 0-50.154-14.159-98.06-41.104-139.645l139.072-139.144c16.789-16.8 16.789-44.134-0.001-60.939zM655.82 53.046c45.731 0 88.729 17.818 121.069 50.174s50.149 75.374 50.149 121.131c0 45.762-17.808 88.78-50.149 121.131-32.34 32.356-75.338 50.174-121.069 50.174-45.736 0-88.734-17.818-121.074-50.174-32.34-32.356-50.149-75.369-50.149-121.131 0-45.757 17.808-88.775 50.149-121.131s75.337-50.174 121.074-50.174zM765.965 809.815H86.402v-782.266h263.212v-86.19H79.773c-43.847 0-79.52 35.693-79.52 79.561V816.444C0.253 860.312 35.926 896 79.773 896h692.821c43.847 0 79.515-35.688 79.515-79.556v-299.586h-86.144V809.815z m-454.158-657.67H207.461c-23.751 0-43.074 19.334-43.074 43.095s19.323 43.095 43.074 43.095h104.346c23.751 0 43.074-19.334 43.074-43.095s-19.322-43.095-43.074-43.095z m-147.42 477.423c0 23.761 19.323 43.095 43.074 43.095H595.29c23.751 0 43.074-19.334 43.074-43.095s-19.323-43.095-43.074-43.095H207.461c-23.751 0-43.074 19.334-43.074 43.095z m0-224.289c0 23.761 19.323 43.095 43.074 43.095h152.795c23.746 0 43.069-19.328 43.074-43.09 0-23.766-19.323-43.1-43.074-43.1H207.461c-23.751 0-43.074 19.333-43.074 43.095z"  horiz-adv-x="1024" />

    
    <glyph glyph-name="gerenshezhi1" unicode="&#59017;" d="M510.061 205.63199999999995c-102.94 0-186.447 83.51-186.447 186.447 0 103.023 83.51 186.447 186.447 186.447 103.023 0 186.447-83.51 186.447-186.447s-83.427-186.447-186.447-186.447z m371.906 275.002h-72.678c-6.862 14.799-16.537 45.477-29.022 67.388l51.346 49.856c16.206 16.206 16.206 41.673 0 57.877l-58.62 58.21c-16.206 16.206-42.417 16.039-58.623-0.165l-48.366-51.347c-21.828 12.402-52.585 22.076-67.301 28.938v72.678c0 22.904-24.309 41.426-47.129 41.426h-82.932c-22.904 0-47.129-18.521-47.129-41.426v-72.678c-14.799-6.862-45.477-16.537-67.388-29.023l-49.856 51.347c-16.206 16.206-41.755 16.206-57.877 0l-58.209-58.62c-16.206-16.206-16.039-42.415 0.165-58.623l51.427-48.452c-12.402-21.912-22.076-52.585-28.938-67.301h-72.68c-22.904 0-41.507-24.309-41.507-47.129v-82.848c0-22.904 18.521-47.129 41.507-47.129h72.678c6.862-14.799 16.616-45.477 29.022-67.301l-51.427-50.109c-16.206-16.206-16.206-41.672 0-57.877l58.62-58.292c16.206-16.206 42.415-16.04 58.623 0.249l48.452 51.427c21.912-12.402 52.585-22.076 67.301-28.938v-72.678c0-22.904 24.309-41.426 47.129-41.426h82.848c22.904 0 47.129 18.521 47.129 41.507v72.678c14.799 6.862 45.477 16.616 67.388 29.022l49.943-51.346c16.206-16.206 41.671-16.206 57.877 0l58.292 58.62c16.206 16.206 16.04 42.417-0.165 58.623l-51.427 48.366c12.402 21.912 22.076 52.585 28.938 67.301h72.678c22.904 0 41.426 24.309 41.426 47.129V433.5c0 22.907-18.52 47.131-41.507 47.131z"  horiz-adv-x="1024" />

    
    <glyph glyph-name="jizhongqi" unicode="&#58906;" d="M547.555556 54.044444L536.177778-14.222221999999988v-14.222222c-2.844444 0-2.844444-2.844444-2.844445-2.844445-2.844444 0-2.844444-2.844444-2.844444-2.844444 0-2.844444-2.844444-2.844444-2.844445-2.844445l-2.844444-2.844444c0-2.844444-2.844444-2.844444-2.844444-2.844445H499.2c0-2.844444 2.844444-2.844444 2.844444-2.844444h19.911112c0 2.844444 2.844444 2.844444 2.844444 2.844444 0 2.844444 2.844444 2.844444 2.844444 2.844445l2.844445 2.844444 2.844444 2.844445 2.844445 2.844444 2.844444 2.844445c2.844444 0 2.844444 2.844444 2.844445 2.844444 2.844444 0 0 2.844444 2.844444 2.844444s2.844444 2.844444 2.844445 2.844445V-14.222221999999988l11.377777 65.422222c0 2.844444 0 2.844444 5.688889 2.844444v5.688889h-17.066666l-45.511112-36.977777 45.511112 31.288888zM521.955556-19.911111000000005c2.844444 2.844444 2.844444 8.533333 2.844444 14.222222s-2.844444 8.533333-8.533333 11.377778c-5.688889 2.844444-8.533333 2.844444-14.222223 2.844444s-8.533333-2.844444-11.377777-8.533333c-2.844444-2.844444-2.844444-8.533333-2.844445-14.222222 0-2.844444 2.844444-8.533333 8.533334-11.377778 2.844444-2.844444 8.533333-2.844444 14.222222-2.844444s8.533333 2.844444 11.377778 8.533333zM479.288889 2.844443999999953s0 2.844444 2.844444 2.844445c0 0 0 2.844444 2.844445 2.844444l2.844444 2.844445 2.844445 2.844444 2.844444 2.844445 8.533333 5.688889-14.222222-8.533334s-2.844444 0-2.844444-2.844444l-2.844445-2.844445s0-2.844444-2.844444-2.844444v-2.844445c-2.844444-2.844444-2.844444 0 0 0zM476.444444-17.066667000000052v17.066667-19.911111zM496.355556-39.82222200000001l-5.688889 5.688889-2.844445 2.844444-2.844444 2.844445-2.844445 2.844444s0 2.844444-2.844444 2.844444c0 0 0 2.844444-2.844445 2.844445V-28.444443999999976s0-2.844444 2.844445-2.844445c0 0 0-2.844444 2.844444-2.844444l2.844445-2.844445s2.844444 0 2.844444-2.844444c0 0 2.844444 0 2.844445-2.844445H499.2s-2.844444 0-2.844444 2.844445zM780.8 5.688889000000017c2.844444 0 2.844444 2.844444 2.844444 2.844444-2.844444 0-2.844444-2.844444-2.844444-2.844444zM786.488889 11.377778000000035c2.844444 2.844444 0 2.844444 0 0zM777.955556 2.844443999999953c2.844444 0 2.844444 2.844444 2.844444 2.844445-2.844444 0-2.844444-2.844444-2.844444-2.844445zM789.333333 14.222221999999988l59.733334 39.822222-11.377778-68.266666v-14.222222c2.844444 0 2.844444 2.844444 2.844444 2.844444 2.844444 0 2.844444 2.844444 2.844445 2.844444 2.844444 0 2.844444 2.844444 2.844444 2.844445V-14.222221999999988l11.377778 65.422222c0 2.844444 0 2.844444 5.688889 2.844444v5.688889h-17.066667l-54.044444-42.666666-2.844445-2.844445zM800.711111 8.53333299999997c-5.688889 0-8.533333-2.844444-11.377778-8.533333-2.844444-2.844444-2.844444-8.533333-2.844444-14.222222 0-2.844444 2.844444-8.533333 8.533333-11.377778 2.844444-2.844444 8.533333-2.844444 14.222222-2.844444s8.533333 2.844444 11.377778 8.533333c2.844444 2.844444 2.844444 8.533333 2.844445 14.222222s-2.844444 8.533333-8.533334 11.377778c-2.844444 2.844444-8.533333 2.844444-14.222222 2.844444zM775.111111 0v-19.911111c2.844444 0 2.844444-2.844444 2.844445-2.844445V2.844443999999953c-2.844444 0-2.844444-2.844444-2.844445-2.844444zM826.311111-39.82222200000001s-2.844444 0-2.844444-2.844445c0 0 2.844444 0 2.844444 2.844445zM786.488889 11.377778000000035l-2.844445-2.844445 2.844445 2.844445zM834.844444-31.28888900000004c0 2.844444 0 0 0 0zM777.955556-28.444443999999976s0-2.844444 0 0c2.844444-2.844444 2.844444-5.688889 5.688888-5.688889l2.844445-2.844445s2.844444 0 2.844444-2.844444c0 0 2.844444 0 2.844445-2.844445h5.688889s-2.844444 0-2.844445 2.844445l-2.844444 2.844444-2.844445 2.844445-2.844444 2.844444-2.844445 2.844445-2.844444 2.844444s0 2.844444-2.844444 2.844444v-5.688888zM832-34.13333299999999l2.844444 2.844444c-2.844444 0-2.844444-2.844444-2.844444-2.844444zM800.711111-45.51111100000003h19.911111c0 2.844444 2.844444 2.844444 2.844445 2.844444h-19.911111l-2.844445-2.844444c-2.844444 0 0 0 0 0zM832-34.13333299999999l-2.844444-2.844445s2.844444 0 2.844444 2.844445zM234.666667 54.044444zM183.466667-25.600000000000023c2.844444-2.844444 8.533333-2.844444 14.222222-2.844444s8.533333 2.844444 11.377778 8.533333c2.844444 2.844444 2.844444 8.533333 2.844444 14.222222s-2.844444 8.533333-8.533333 11.377778c-5.688889 2.844444-11.377778 2.844444-14.222222 2.844444-5.688889 0-8.533333-2.844444-11.377778-8.533333-2.844444-2.844444-2.844444-8.533333-2.844445-14.222222 0-2.844444 2.844444-8.533333 8.533334-11.377778zM166.4 8.53333299999997l-5.688889-5.688889c-2.844444 0-2.844444-2.844444-2.844444-2.844444-2.844444 0-2.844444-2.844444-2.844445-2.844444-2.844444 0-2.844444-2.844444-2.844444-2.844445v-19.911111c2.844444 0 2.844444-2.844444 2.844444-2.844444 2.844444 0 2.844444-2.844444 2.844445-2.844445l2.844444-2.844444 2.844445-2.844445 2.844444-2.844444c0-2.844444 2.844444-2.844444 8.533333 0 0 2.844444-2.844444 2.844444-2.844444 2.844444l-2.844445 2.844445c-2.844444 0-2.844444 2.844444-2.844444 2.844444-2.844444 0-2.844444 2.844444-2.844444 2.844445V2.844443999999953c2.844444 0 2.844444 2.844444 2.844444 5.688889 2.844444-2.844444 2.844444 0 0 0l5.688889 2.844445c0 2.844444 2.844444 2.844444 2.844444 2.844444l59.733334 39.822222h-11.377778l-56.888889-45.511111zM223.288889-19.911111000000005V-28.444443999999976c-2.844444 0-2.844444-2.844444-2.844445-2.844445-2.844444 0-2.844444-2.844444-2.844444-2.844444 0-2.844444-2.844444-2.844444-2.844444-2.844445l-2.844445-2.844444c0-2.844444-2.844444-2.844444-2.844444-2.844445H186.311111c0-2.844444 2.844444-2.844444 2.844445-2.844444h19.911111c0 2.844444 2.844444 2.844444 2.844444 2.844444 0 2.844444 2.844444 2.844444 2.844445 2.844445l2.844444 2.844444 2.844444 2.844445 2.844445 2.844444 2.844444 2.844445c2.844444 0 2.844444 2.844444 2.844445 2.844444 2.844444 0 0 2.844444 2.844444 2.844444s2.844444 2.844444 2.844445 2.844445V-14.222221999999988l11.377777 65.422222c0 2.844444 0 2.844444-5.688888-2.844444v5.688888h-5.688889L223.288889-14.222221999999988v-5.688889zM183.466667-39.82222200000001c-5.688889 2.844444-5.688889 0-8.533334 0 0 0 2.844444 0 2.844445-2.844445H186.311111s-2.844444 0-2.844444 2.844445zM490.666667 722.488889h-258.844445c-17.066667 0-31.288889-14.222222-31.288889-31.288889v-133.688889c0-17.066667 14.222222-31.288889 31.288889-31.288889h256c19.911111 0 34.133333 14.222222 34.133334 31.288889V691.2c0 17.066667-14.222222 31.288889-31.288889 31.288889z m17.066666-164.977778c0-8.533333-5.688889-17.066667-17.066666-17.066667h-258.844445c-8.533333 0-17.066667 5.688889-17.066666 17.066667V691.2c0 8.533333 5.688889 17.066667 17.066666 17.066667h258.844445c8.533333 0 17.066667-5.688889 17.066666-17.066667v-133.688889zM530.488889 773.688889h-338.488889c-25.6 0-42.666667-19.911111-42.666667-42.666667v-210.488889c0-22.755556 19.911111-42.666667 42.666667-42.666666h335.644444c25.6 0 42.666667 17.066667 45.511112 42.666666V731.022222c0 22.755556-19.911111 42.666667-42.666667 42.666667z m8.533333-253.155556c0-5.688889-5.688889-8.533333-8.533333-8.533333h-338.488889c-5.688889 0-8.533333 5.688889-8.533333 8.533333V731.022222c0 5.688889 5.688889 8.533333 8.533333 8.533334h338.488889c5.688889 0 8.533333-5.688889 8.533333-8.533334v-210.488889zM795.022222 640c-48.355556 0-85.333333-36.977778-85.333333-85.333333s36.977778-85.333333 85.333333-85.333334 85.333333 36.977778 85.333334 85.333334-39.822222 85.333333-85.333334 85.333333z m0-17.066667c17.066667 0 34.133333-5.688889 45.511111-17.066666l-45.511111-42.666667-45.511111 45.511111c11.377778 8.533333 28.444444 14.222222 45.511111 14.222222z m-68.266666-68.266666c0 17.066667 5.688889 31.288889 14.222222 42.666666l45.511111-42.666666-42.666667-42.666667c-11.377778 11.377778-17.066667 25.6-17.066666 42.666667z m68.266666-68.266667c-17.066667 0-31.288889 5.688889-42.666666 17.066667l42.666666 42.666666 42.666667-42.666666c-11.377778-11.377778-28.444444-17.066667-42.666667-17.066667z m51.2 25.6l-42.666666 42.666667 45.511111 42.666666c8.533333-11.377778 14.222222-25.6 14.222222-42.666666s-5.688889-31.288889-17.066667-42.666667zM826.311111 543.2888889999999l17.066667 8.533333-17.066667 11.377778zM746.666667 551.822222l17.066666-8.533333v19.911111zM795.022222 603.022222l-11.377778-19.911111h22.755556zM795.022222 503.466667l11.377778 19.911111h-22.755556zM612.977778 594.488889m-11.377778 0a11.377778 11.377778 0 1 1 22.755556 0 11.377778 11.377778 0 1 1-22.755556 0ZM667.022222 594.488889m-11.377778 0a11.377778 11.377778 0 1 1 22.755556 0 11.377778 11.377778 0 1 1-22.755556 0ZM612.977778 523.377778m-11.377778 0a11.377778 11.377778 0 1 1 22.755556 0 11.377778 11.377778 0 1 1-22.755556 0ZM667.022222 523.377778m-11.377778 0a11.377778 11.377778 0 1 1 22.755556 0 11.377778 11.377778 0 1 1-22.755556 0ZM957.155556 861.866667C934.4 881.777778 905.955556 896 871.822222 896h-728.177778C78.222222 896 24.177778 841.955556 24.177778 776.533333v-440.888889c0-65.422222 54.044444-119.466667 119.466666-119.466666h22.755556v-96.711111c-51.2-14.222222-88.177778-62.577778-88.177778-119.466667 0-68.266667 56.888889-125.155556 125.155556-125.155556 68.266667 0 125.155556 56.888889 125.155555 125.155556 0 56.888889-36.977778 102.4-88.177777 119.466667v96.711111h233.244444v-96.711111c-51.2-17.066667-88.177778-62.577778-88.177778-119.466667 0-68.266667 56.888889-125.155556 125.155556-125.155556 68.266667 0 125.155556 56.888889 125.155555 125.155556 0 56.888889-36.977778 105.244444-88.177777 119.466667v96.711111h236.088888v-96.711111c-51.2-14.222222-88.177778-62.577778-88.177777-119.466667 0-68.266667 56.888889-125.155556 125.155555-125.155556s125.155556 56.888889 125.155556 125.155556c0 56.888889-36.977778 102.4-88.177778 119.466667v96.711111h22.755556c65.422222 0 119.466667 54.044444 119.466666 119.466666V776.533333C991.288889 810.666667 977.066667 839.111111 957.155556 861.866667z m-859.022223-102.4c0 34.133333 28.444444 59.733333 59.733334 59.733333h696.888889c17.066667 0 31.288889-5.688889 42.666666-17.066667 11.377778-11.377778 17.066667-25.6 17.066667-42.666666v-332.8h-816.355556V759.466667z m184.888889-756.622223c0-45.511111-36.977778-79.644444-79.644444-79.644444-45.511111 0-79.644444 36.977778-79.644445 79.644444s36.977778 79.644444 79.644445 79.644445 79.644444-34.133333 79.644444-79.644445z m307.2 0c0-45.511111-36.977778-79.644444-79.644444-79.644444-45.511111 0-79.644444 36.977778-79.644445 79.644444s36.977778 79.644444 79.644445 79.644445 79.644444-34.133333 79.644444-79.644445z m307.2 0c0-45.511111-36.977778-79.644444-79.644444-79.644444-45.511111 0-79.644444 36.977778-79.644445 79.644444s36.977778 79.644444 79.644445 79.644445 79.644444-34.133333 79.644444-79.644445z m-39.822222 290.133334h-699.733333c-34.133333 0-59.733333 28.444444-59.733334 59.733333v28.444445h816.355556v-28.444445h2.844444c0-34.133333-25.6-59.733333-59.733333-59.733333zM840.533333 366.93333299999995h-659.911111c-17.066667 0-28.444444-11.377778-28.444444-28.444444s14.222222-28.444444 28.444444-28.444445h659.911111c14.222222 0 28.444444 11.377778 28.444445 28.444445s-14.222222 28.444444-28.444445 28.444444z m0-42.666666h-659.911111c-8.533333 0-14.222222 5.688889-14.222222 14.222222s5.688889 14.222222 14.222222 14.222222h659.911111c8.533333 0 14.222222-5.688889 14.222223-14.222222s-5.688889-14.222222-14.222223-14.222222z"  horiz-adv-x="1024" />

    
    <glyph glyph-name="sousuo1" unicode="&#58946;" d="M1011.143111-51.42755599999998l-248.376889 253.724445c-4.096 4.209778-8.874667 7.395556-13.880889 9.557333 53.361778 71.566222 84.992 160.995556 84.992 257.934222C833.991111 705.194667 647.281778 896 416.995556 896 186.709333 896 0 705.194667 0 469.902222 0 234.49599999999998 186.709333 43.80444399999999 416.995556 43.80444399999999c105.699556 0 202.183111 40.163556 275.683555 106.382223 2.048-4.096 4.664889-7.850667 8.078222-11.264l248.263111-253.724445c17.066667-17.521778 44.942222-17.521778 62.122667 0 17.180444 17.408 17.180444 45.966222 0 63.374222zM416.995556 111.04711099999997C223.004444 111.04711099999997 65.763556 271.701333 65.763556 469.902222S223.004444 828.757333 416.995556 828.757333c193.877333 0 351.232-160.654222 351.232-358.855111-0.113778-198.200889-157.354667-358.855111-351.232-358.855111z"  horiz-adv-x="1024" />

    
    <glyph glyph-name="ai237" unicode="&#58932;" d="M52.361 327.693h702.8l-322.632-322.547 80.682-80.762 460.949 460.931-460.949 460.858-80.682-80.676 322.632-322.623h-702.8z"  horiz-adv-x="1024" />

    
    <glyph glyph-name="shouye" unicode="&#58898;" d="M595.2-64v268.8H428.8V-64H185.6c-25.6 0-44.8 19.2-44.8 44.8V307.20000000000005c0 6.4 6.4 12.8 6.4 19.2 70.4 64 140.8 128 204.8 185.6 44.8 44.8 89.6 83.2 140.8 128 12.8 6.4 12.8 6.4 19.2 12.8 25.6-25.6 57.6-51.2 83.2-76.8 89.6-83.2 179.2-166.4 268.8-243.2 12.8-6.4 12.8-19.2 12.8-32v-313.6c0-19.2-6.4-38.4-19.2-44.8-6.4-6.4-12.8-6.4-19.2-6.4H595.2z m121.6 736v128c0 25.6 6.4 32 32 32h108.8c19.2 0 25.6-6.4 25.6-32v-262.4c0-12.8 6.4-19.2 12.8-32 38.4-38.4 76.8-70.4 115.2-108.8 19.2-19.2 19.2-25.6 6.4-44.8-12.8-12.8-19.2-25.6-32-38.4-12.8-12.8-19.2-19.2-38.4-6.4-140.8 128-281.6 256-416 384-6.4 12.8-12.8 12.8-19.2 19.2-32-25.6-64-57.6-96-83.2C307.2 524.8 192 416 76.8 313.6 64 300.79999999999995 51.2 300.79999999999995 38.4 320c-6.4 12.8-19.2 25.6-32 38.4-6.4 19.2-6.4 25.6 6.4 38.4l192 172.8c83.2 76.8 166.4 153.6 256 230.4 38.4 38.4 76.8 38.4 115.2 0 44.8-44.8 89.6-83.2 134.4-128 0 6.4 0 6.4 6.4 0z"  horiz-adv-x="1026" />

    
    <glyph glyph-name="rili" unicode="&#59099;" d="M723.528 271.597c29.614 0 54.997 25.449 54.997 55.142 0 29.69-25.383 55.142-54.997 55.142s-54.997-25.451-54.997-55.142c0-29.693 25.383-55.142 54.997-55.142zM330.084 585.482c21.154 0 38.076 16.967 38.076 33.932V797.568c0 16.967-16.923 33.932-38.076 33.932-16.921 0-33.844-12.726-33.844-33.932v-178.153c0.001-16.965 12.692-33.933 33.844-33.933z m351.139 0c21.152 0 38.075 16.967 38.075 33.932V797.568c0 16.967-16.923 33.932-38.075 33.932-16.923 0-33.845-12.726-33.845-33.932v-178.153c-0.001-16.965 12.691-33.933 33.845-33.933z m-80.381 152.702H410.466v-55.142h190.375v55.142zM507.768 55.26999999999998c29.614 0 54.997 25.449 54.997 55.142 0 29.69-25.383 55.142-54.997 55.142-29.613 0-54.997-25.451-54.997-55.142 0-29.694 25.385-55.142 54.997-55.142z m-215.758 0c29.614 0 54.997 25.449 54.997 55.142 0 29.69-25.383 55.142-54.997 55.142s-54.997-25.451-54.997-55.142c-0.001-29.694 25.382-55.142 54.997-55.142z m215.758 216.327c29.614 0 54.997 25.449 54.997 55.142 0 29.69-25.383 55.142-54.997 55.142-29.613 0-54.997-25.451-54.997-55.142 0-29.693 25.385-55.142 54.997-55.142z m334.216 466.587h-71.92v-55.142h71.92c21.152 0 42.306-16.967 42.306-42.419v-139.976H135.48V640.624c0 21.209 16.921 42.419 42.306 42.419h76.15v55.142h-71.92c-54.997 0-101.533-46.661-101.533-101.802v-598.08c0-55.142 42.306-101.802 97.303-101.802h664.199c54.997 0 101.534 46.661 101.534 101.802v598.08c-0.001 55.141-46.538 101.801-101.535 101.801z m38.075-704.124c0-21.209-16.923-42.416-42.306-42.416H173.554c-21.154 0-42.306 16.965-42.306 42.416V449.748h748.81V34.059999999999945zM292.01 271.597c29.614 0 54.997 25.449 54.997 55.142 0 29.69-25.383 55.142-54.997 55.142s-54.997-25.451-54.997-55.142c-0.001-29.693 25.382-55.142 54.997-55.142z"  horiz-adv-x="1024" />

    
    <glyph glyph-name="zhongzhimima" unicode="&#58919;" d="M922.19 339.65999999999997c2.713 25.447 24.883 44.34 50.585 44.34 30.771 0 54.733-26.931 51.302-57.446C995.457 70.80999999999995 777.857-128 513.665-128 210.663-128-31.052 133.47799999999995 3.252 442.42 28.647 671.333 211.84 859.596 440.756 890.981 465.383 894.362 489.703 896 513.665 896 653.697 896 780.62 840.038 873.19 749.363V844.8c0 28.262 22.989 51.2 51.354 51.2 28.364 0 51.353-22.938 51.353-51.2v-197.018c0.154-1.433 0.82-2.61 0.82-4.096v-7.372c0-20.276-12.8-37.274-30.72-44.084-6.554-3.072-13.722-5.017-21.453-5.017-2.816 0-5.274 1.126-7.988 1.587H714.573c-26.316 0-47.616 21.248-47.616 47.514v7.372c0 26.266 21.3 47.514 47.616 47.514h70.144c-72.345 63.642-167.219 102.4-271.052 102.4-21.76 0-43.93-1.69-66.304-5.222-179.303-28.16-321.844-177.664-342.016-357.479C77.697 184.16600000000005 271.54-25.600000000000023 513.665-25.600000000000023c211.507 0 386.252 160.205 408.524 365.26zM513.664 640c85.094 0 154.06-68.762 154.06-153.6v-51.2c28.365 0 51.354-22.938 51.354-51.2v-204.8c0-28.262-22.989-51.2-51.354-51.2H359.553c-28.365 0-51.354 22.938-51.354 51.2V384c0 28.262 22.989 51.2 51.354 51.2v51.2c0 84.838 69.017 153.6 154.112 153.6z m0-409.6c28.313 0 51.353 22.938 51.353 51.2 0 28.262-23.04 51.2-51.353 51.2-28.416 0-51.354-22.938-51.354-51.2 0-28.262 22.938-51.2 51.354-51.2z m51.353 204.8v51.2c0 28.211-23.091 51.2-51.353 51.2-28.365 0-51.354-22.989-51.354-51.2v-51.2h102.707z"  horiz-adv-x="1025" />

    
    <glyph glyph-name="yidongdao" unicode="&#58947;" d="M929.300788-46.387969999999996h-834.598496C50.973642-46.387969999999996 15.398496-11.709017000000017 15.398496 30.914021000000048V737.085979C15.398496 779.710556 50.973642 814.38797 94.700752 814.38797h340.919627l78.532331-117.028572h417.878231c0.287952 0.00462 0.665215 0.009239 1.12563 0.00924 36.335832 0 75.444932-20.48154 75.444933-65.451309v-601.003308c0.00154-42.623038-35.575146-77.301991-79.300716-77.301991zM94.700752 754.333835C84.088108 754.333835 75.452632 746.59609 75.452632 737.085979v-706.171958C75.452632 21.40237000000002 84.088108 13.666164999999978 94.700752 13.666164999999978h834.598496c10.614183 0 19.24812 7.736205 19.24812 17.247856v601.003308c0 0.92391-0.089311 1.473636-0.147825 1.735411-1.880156 1.690755-8.817179 3.644824-15.164439 3.661762l-0.666755-0.035416-0.187862 0.026177H482.131537l-78.532331 117.028572H94.700752zM750.302508 291.482755H260.631868c-16.58418 0-30.027068 13.442887-30.027068 30.027068s13.442887 30.027068 30.027068 30.027067h489.67064c16.58418 0 30.027068-13.442887 30.027068-30.027067s-13.444427-30.027068-30.027068-30.027068zM612.720024 142.37295600000004c-7.68385 0-15.367699 2.930334-21.231447 8.794082-11.725955 11.725955-11.725955 30.740018 0 42.465973l147.569949 147.569948c11.724415 11.727495 30.738478 11.725955 42.464433 0s11.725955-30.740018 0-42.465973l-147.569948-147.569948a29.931597 29.931597 0 0 0-21.232987-8.794082zM763.369672 293.022605c-7.68385 0-15.367699 2.930334-21.231446 8.794081l-147.569949 147.568409c-11.725955 11.725955-11.725955 30.738478 0 42.464433 11.724415 11.724415 30.738478 11.727495 42.464433 0l147.569949-147.566869c11.725955-11.725955 11.725955-30.738478 0-42.464433a29.930057 29.930057 0 0 0-21.232987-8.795621z"  horiz-adv-x="1024" />

    
    <glyph glyph-name="pengyou1" unicode="&#58920;" d="M106.345 9.743000000000052a29.455 29.455 0 0 0-29.41 29.425c0 74.722 23.613 145.664 68.292 205.161a346.308 346.308 0 0 0 76.605 74.451 338.522 338.522 0 0 0 78.336 41.442 219.934 219.934 0 0 0-64.573 66.214 215.612 215.612 0 0 0-33.024 115.034c0 119.808 97.461 217.254 217.269 217.254 119.793 0 217.254-97.46 217.254-217.254 0-73.336-36.021-140.198-96.798-180.646a343.913 343.913 0 0 0 77.04-40.93 341.986 341.986 0 0 0 76.59-74.586 338.839 338.839 0 0 0 68.427-205.161c0-16.219-13.192-29.425-29.41-29.425s-29.425 13.206-29.425 29.425c0 75.7-29.455 146.914-82.929 200.493-51.938 52.194-120.681 81.74-193.536 83.185l-0.798-0.361c-2.319-0.467-4.518-0.738-6.64-0.738-0.844 0-1.657 0.045-2.47 0.12-74.3-0.015-144.927-29.56-198.446-83.185-53.474-53.85-82.929-125.063-82.929-200.493a29.47 29.47 0 0 0-29.425-29.425z m313.6 690.161c-87.356 0-158.418-71.063-158.418-158.419s71.062-158.419 158.418-158.419S578.38 454.13 578.38 541.486s-71.077 158.418-158.434 158.418z m479.88-626.206a29.455 29.455 0 0 0-29.425 29.41c0 130.123-99.132 235.987-220.988 235.987a29.47 29.47 0 1 0 0 58.955c66.65 0 120.877 58.232 120.877 129.792 0 71.574-54.242 129.807-120.877 129.807-16.219 0-29.41 13.191-29.41 29.425s13.191 29.425 29.41 29.425c99.102 0 179.727-84.63 179.727-188.642 0-33.416-8.433-66.184-24.365-94.75a186.488 186.488 0 0 0-48.987-57.284c47.752-20.66 89.073-54.844 119.869-99.268 35.192-50.823 53.714-110.787 53.609-173.462a29.47 29.47 0 0 0-29.44-29.395z"  horiz-adv-x="1024" />

    
    <glyph glyph-name="gerenxinxi" unicode="&#59532;" d="M796.778952 339.780893c68.935022 43.651173 114.941845 121.440863 114.941845 209.981408 0 136.28085-108.888989 247.136633-242.7313 247.136634S426.26229 686.043151 426.26229 549.762301c0-88.549755 46.006823-166.340469 114.941846-209.981408-131.681088-52.243875-225.272673-182.662203-225.272674-334.982354 0-18.609847 14.815427-33.697473 33.099863-33.697474 18.279319 0 33.099862 15.087627 33.099862 33.697474 0 161.049976 128.678708 292.060799 286.85831 292.060798 158.183695 0 286.862403-131.010823 286.862403-292.060798 0-18.609847 14.820544-33.697473 33.099863-33.697474s33.099862 15.087627 33.099862 33.697474c0 152.335501-93.605911 282.738479-225.272673 334.982354z m-127.789455 30.263257c-97.332792 0-176.526459 80.631412-176.526459 179.727361 0 99.110275 79.193667 179.74271 176.526459 179.74271 97.336886 0 176.531576-80.631412 176.531576-179.74271-0.001023-99.095949-79.19469-179.727361-176.531576-179.727361zM383.340735 780.927171c-0.106424 0-0.194428-0.033769-0.296759-0.033769v0.033769H101.718683c-55.085596 0-99.771331-45.472658-99.771331-101.568256v-590.678944c0-56.105832 44.666292-101.5877 99.771331-101.592816h137.88437v0.130983c17.73492 0.675382 31.773657 15.501042 31.787984 33.56649-0.019443 18.060331-14.047947 32.880875-31.778774 33.56649v0.155542H90.225931c-5.853311 0-11.464099 2.365884-15.60235 6.581906-4.13825 4.211928-6.465249 9.924024-6.465248 15.884782V691.0614439999999c0 12.411681 9.881045 22.466688 22.068621 22.466688H383.044999v0.033769c0.11154 0 0.199545-0.033769 0.296759-0.033769 17.948791 0.470721 32.259728 15.423271 32.259728 33.697473-0.001023 18.283412-14.31196 33.230845-32.260751 33.701566z m-48.731888-306.473043v0.24764h-2.506077c-0.393973 0.010233-0.772596 0.121773-1.165545 0.121774-0.398066 0-0.772596-0.11154-1.170663-0.121774h-164.087149c-0.398066 0.010233-0.772596 0.121773-1.170662 0.121774-0.393973 0-0.76748-0.11154-1.165546-0.121774h-1.656732v-0.169869c-19.48375-1.515516-34.863019-17.881253-34.863019-38.08848 0-20.208251 15.389502-36.597523 34.863019-38.093596v-0.111541h0.961907c0.636496-0.019443 1.223874-0.189312 1.874697-0.189311 0.650823 0 1.234107 0.169869 1.874697 0.189311h162.67294c0.641613-0.019443 1.223874-0.189312 1.87572-0.189311 0.650823 0 1.234107 0.169869 1.874697 0.189311h1.796926v0.203638c19.265786 1.851161 33.989115 18.303878 34.017768 38.001499-0.053212 19.692504-14.771425 36.136012-34.026978 38.010709z m0-167.787424v0.24764h-2.506077c-0.393973 0.010233-0.772596 0.121773-1.165545 0.121774-0.398066 0-0.772596-0.11154-1.170663-0.121774h-164.087149c-0.398066 0.010233-0.772596 0.121773-1.170662 0.121774-0.393973 0-0.76748-0.11154-1.165546-0.121774h-1.656732v-0.169869c-19.48375-1.515516-34.863019-17.881253-34.863019-38.08848s15.389502-36.597523 34.863019-38.093596v-0.111541h0.947581v0.010233c0.641613-0.019443 1.223874-0.189312 1.874697-0.189311s1.238201 0.169869 1.879814 0.189311h162.667823c0.641613-0.019443 1.228991-0.189312 1.879813-0.189311 0.650823 0 1.234107 0.169869 1.874697 0.189311h1.796926v0.203638c19.260669 1.851161 33.989115 18.303878 34.013675 38.001499 0 19.891026-14.94641 36.090986-34.012652 38.000476z m0 331.60135v0.257873h-2.506077c-0.393973 0.00921-0.772596 0.121773-1.165545 0.121774-0.398066 0-0.772596-0.11154-1.170663-0.121774h-164.087149c-0.398066 0.00921-0.772596 0.121773-1.170662 0.121774-0.393973 0-0.76748-0.11154-1.165546-0.121774h-1.656732v-0.180101c-19.48375-1.505283-34.863019-17.881253-34.863019-38.093597 0-20.207227 15.389502-36.583197 34.863019-38.08848v-0.102331h0.961907c0.636496-0.033769 1.223874-0.189312 1.874697-0.189311 0.650823 0 1.234107 0.155543 1.874697 0.189311h162.67294c0.641613-0.033769 1.223874-0.189312 1.87572-0.189311 0.650823 0 1.234107 0.155543 1.874697 0.189311h1.796926v0.189312c19.066241 1.909489 34.017768 18.08489 34.017768 38.001499s-14.97097 36.116569-34.026978 38.015825z"  horiz-adv-x="1024" />

    
    </font>
</defs>
</svg>
